<svg xmlns="http://www.w3.org/2000/svg" width="1920" height="810" viewBox="0 0 1920 810">
  <defs>
    <linearGradient id="wall" x1="0" y1="0" x2="0" y2="1">
      <stop offset="0" stop-color="#f2f8f6"/><stop offset="1" stop-color="#dceef0"/>
    </linearGradient>
    <linearGradient id="floor" x1="0" y1="0" x2="0" y2="1">
      <stop offset="0" stop-color="#f0dcb6"/><stop offset="1" stop-color="#e6cf9e"/>
    </linearGradient>
  </defs>
  <!-- стена -->
  <rect x="0" y="0" width="1920" height="620" fill="url(#wall)"/>
  <rect x="0" y="0" width="1920" height="14" fill="#cfe2e6"/>
  <!-- лёгкие полосы обоев -->
  <g fill="rgba(39,56,74,0.025)"><rect x="0" y="0" width="26" height="620"/><rect x="64" y="0" width="26" height="620"/><rect x="128" y="0" width="26" height="620"/><rect x="192" y="0" width="26" height="620"/><rect x="256" y="0" width="26" height="620"/><rect x="320" y="0" width="26" height="620"/><rect x="384" y="0" width="26" height="620"/><rect x="448" y="0" width="26" height="620"/><rect x="512" y="0" width="26" height="620"/><rect x="576" y="0" width="26" height="620"/><rect x="640" y="0" width="26" height="620"/><rect x="704" y="0" width="26" height="620"/><rect x="768" y="0" width="26" height="620"/><rect x="832" y="0" width="26" height="620"/><rect x="896" y="0" width="26" height="620"/><rect x="960" y="0" width="26" height="620"/><rect x="1024" y="0" width="26" height="620"/><rect x="1088" y="0" width="26" height="620"/><rect x="1152" y="0" width="26" height="620"/><rect x="1216" y="0" width="26" height="620"/><rect x="1280" y="0" width="26" height="620"/><rect x="1344" y="0" width="26" height="620"/><rect x="1408" y="0" width="26" height="620"/><rect x="1472" y="0" width="26" height="620"/><rect x="1536" y="0" width="26" height="620"/><rect x="1600" y="0" width="26" height="620"/><rect x="1664" y="0" width="26" height="620"/><rect x="1728" y="0" width="26" height="620"/><rect x="1792" y="0" width="26" height="620"/><rect x="1856" y="0" width="26" height="620"/></g>
  <!-- дальние полки по краям (за панелями интерфейса, добавляют глубину) -->
  <g>
    <rect x="30" y="150" width="300" height="12" rx="4" fill="#cfe2e6"/>
    <rect x="30" y="300" width="300" height="12" rx="4" fill="#cfe2e6"/>
    <rect x="1590" y="150" width="300" height="12" rx="4" fill="#cfe2e6"/>
    <rect x="1590" y="300" width="300" height="12" rx="4" fill="#cfe2e6"/>
    <rect x="60" y="120" width="20" height="26" rx="3" fill="#ffd98a"/><rect x="100" y="120" width="20" height="26" rx="3" fill="#a6e3c8"/><rect x="140" y="120" width="20" height="26" rx="3" fill="#9fc8ef"/><rect x="180" y="120" width="20" height="26" rx="3" fill="#f4b3b3"/><rect x="220" y="120" width="20" height="26" rx="3" fill="#c9b3f0"/><rect x="260" y="120" width="20" height="26" rx="3" fill="#a6e3c8"/>
    <rect x="60" y="270" width="20" height="26" rx="3" fill="#a6e3c8"/><rect x="100" y="270" width="20" height="26" rx="3" fill="#9fc8ef"/><rect x="140" y="270" width="20" height="26" rx="3" fill="#ffd98a"/><rect x="180" y="270" width="20" height="26" rx="3" fill="#c9b3f0"/><rect x="220" y="270" width="20" height="26" rx="3" fill="#f4b3b3"/><rect x="260" y="270" width="20" height="26" rx="3" fill="#9fc8ef"/>
    <rect x="1620" y="120" width="20" height="26" rx="3" fill="#9fc8ef"/><rect x="1660" y="120" width="20" height="26" rx="3" fill="#ffd98a"/><rect x="1700" y="120" width="20" height="26" rx="3" fill="#a6e3c8"/><rect x="1740" y="120" width="20" height="26" rx="3" fill="#f4b3b3"/><rect x="1780" y="120" width="20" height="26" rx="3" fill="#c9b3f0"/><rect x="1820" y="120" width="20" height="26" rx="3" fill="#ffd98a"/>
  </g>
  <!-- окно в коридоре кота -->
  <g>
    <rect x="700" y="80" width="520" height="300" rx="14" fill="#ffffff"/>
    <rect x="716" y="96" width="488" height="268" rx="8" fill="#bfe6ff"/>
    <!-- солнце / светильник -->
    <circle cx="960" cy="200" r="46" fill="#ffd34d"/>
    <!-- облачка/звёзды -->
    <g fill="rgba(255,255,255,0.6)"><ellipse cx="800" cy="150" rx="24" ry="11"/><ellipse cx="820" cy="156" rx="16" ry="9"/><ellipse cx="1120" cy="190" rx="22" ry="10"/></g>
    <!-- переплёт -->
    <g stroke="#ffffff" stroke-width="14" fill="none">
      <line x1="960" y1="80" x2="960" y2="380"/>
      <line x1="700" y1="230" x2="1220" y2="230"/>
    </g>
    <!-- подоконник -->
    <rect x="686" y="380" width="548" height="14" rx="5" fill="#ffffff"/>
    <!-- шторы -->
    <rect x="662" y="66" width="26" height="330" rx="10" fill="#bfe0d8"/>
    <rect x="1232" y="66" width="26" height="330" rx="10" fill="#bfe0d8"/>
    <!-- растение на подоконнике -->
    <rect x="736" y="360" width="34" height="24" rx="4" fill="#c9915c"/>
    <ellipse cx="746" cy="352" rx="9" ry="16" fill="#4a9e6e" transform="rotate(-16 746 352)"/>
    <ellipse cx="760" cy="352" rx="9" ry="16" fill="#4a9e6e" transform="rotate(16 760 352)"/>
    <ellipse cx="753" cy="346" rx="9" ry="18" fill="#57b07e"/>
  </g>
  <!-- часы на стене -->
  <g>
    <circle cx="1360" cy="150" r="34" fill="#ffffff"/><circle cx="1360" cy="150" r="34" fill="none" stroke="#cfa25a" stroke-width="5"/>
    <line x1="1360" y1="150" x2="1360" y2="128" stroke="#27384a" stroke-width="4" stroke-linecap="round"/>
    <line x1="1360" y1="150" x2="1378" y2="150" stroke="#27384a" stroke-width="3" stroke-linecap="round"/>
  </g>
  <!-- аптечный крест в рамке -->
  <g>
    <rect x="560" y="120" width="70" height="70" rx="8" fill="#ffffff" stroke="#cfa25a" stroke-width="4"/>
    <rect x="588" y="132" width="14" height="46" rx="3" fill="#2fb27a"/>
    <rect x="572" y="148" width="46" height="14" rx="3" fill="#2fb27a"/>
  </g>
  <!-- пол -->
  <rect x="0" y="612" width="1920" height="198" fill="url(#floor)"/>
  <rect x="0" y="608" width="1920" height="6" fill="#c9915c"/>
  <g fill="rgba(39,56,74,0.05)"><rect x="0" y="612" width="30" height="198"/><rect x="64" y="612" width="30" height="198"/><rect x="128" y="612" width="30" height="198"/><rect x="192" y="612" width="30" height="198"/><rect x="256" y="612" width="30" height="198"/><rect x="320" y="612" width="30" height="198"/><rect x="384" y="612" width="30" height="198"/><rect x="448" y="612" width="30" height="198"/><rect x="512" y="612" width="30" height="198"/><rect x="576" y="612" width="30" height="198"/><rect x="640" y="612" width="30" height="198"/><rect x="704" y="612" width="30" height="198"/><rect x="768" y="612" width="30" height="198"/><rect x="832" y="612" width="30" height="198"/><rect x="896" y="612" width="30" height="198"/><rect x="960" y="612" width="30" height="198"/><rect x="1024" y="612" width="30" height="198"/><rect x="1088" y="612" width="30" height="198"/><rect x="1152" y="612" width="30" height="198"/><rect x="1216" y="612" width="30" height="198"/><rect x="1280" y="612" width="30" height="198"/><rect x="1344" y="612" width="30" height="198"/><rect x="1408" y="612" width="30" height="198"/><rect x="1472" y="612" width="30" height="198"/><rect x="1536" y="612" width="30" height="198"/><rect x="1600" y="612" width="30" height="198"/><rect x="1664" y="612" width="30" height="198"/><rect x="1728" y="612" width="30" height="198"/><rect x="1792" y="612" width="30" height="198"/><rect x="1856" y="612" width="30" height="198"/></g>
  <!-- ковёр -->
  <ellipse cx="960" cy="742" rx="240" ry="46" fill="rgba(79,147,214,0.16)"/>
  <!-- световое пятно на ближнем полу (перед прилавком) -->
  <polygon points="820,394 1100,394 1180,760 740,760" fill="rgba(255,210,80,0.26)"/>
  <!-- прилавок (по центру, фармацевт стоит за ним) -->
  <g>
    <rect x="660" y="500" width="600" height="130" rx="14" fill="#e6cfa0"/>
    <rect x="660" y="502" width="600" height="6" fill="rgba(255,255,255,0.5)"/>
    <rect x="660" y="618" width="600" height="12" fill="#cfa25a"/>
    <text x="960" y="600" text-anchor="middle" font-family="Comfortaa, Arial" font-weight="700" font-size="26" fill="#27384a">АПТЕКА</text>
  </g>
</svg>