<svg width="70" height="70" viewBox="0 0 70 70" fill="none" xmlns="http://www.w3.org/2000/svg">
<g clip-path="url(#clip0_5027_3998)">
<path d="M56.7752 69.9483H13.2227C13.2903 68.5969 13.3676 67.2438 13.4543 65.8923C13.7204 61.7307 16.9842 58.3852 21.1379 58.0024C30.3595 57.1502 39.6401 57.1502 48.8618 58.0024C53.014 58.3852 56.2792 61.7307 56.5438 65.8923C56.6303 67.2438 56.7076 68.5967 56.7752 69.9483Z" fill="#90D8F9"/>
<path d="M30.3072 57.4375C30.0058 57.4643 29.7044 57.491 29.4029 57.5191C24.8945 57.9346 21.3509 61.567 21.0606 66.0854C20.9786 67.3727 20.9045 68.6605 20.838 69.9488H13.2227C13.2902 68.5981 13.3677 67.2446 13.4537 65.8925C13.7199 61.7318 16.9832 58.3854 21.1383 58.0038C24.1881 57.7223 27.2458 57.5335 30.3072 57.4375Z" fill="#75CEF9"/>
<path d="M39.9648 50.2441V56.8948C39.9648 59.6371 37.7423 61.8596 35 61.8596C32.2577 61.8596 30.0352 59.6371 30.0352 56.8948V50.2441H39.9648Z" fill="#407093"/>
<path d="M36.4056 61.6569C35.9493 61.792 35.4758 61.8603 35 61.8596C32.2578 61.8596 30.0352 59.6371 30.0352 56.8948V50.2441H32.8465V56.8948C32.8465 59.1484 34.3478 61.0512 36.4056 61.6569Z" fill="#365E7D"/>
<path d="M39.9648 50.2441V56.723C36.6549 56.7793 33.345 56.7793 30.0352 56.723V50.2441H39.9648Z" fill="#365E7D"/>
<path d="M23.3046 8.33184C25.5913 8.33184 27.4451 6.47806 27.4451 4.19131C27.4451 1.90456 25.5913 0.0507812 23.3046 0.0507812C21.0178 0.0507812 19.1641 1.90456 19.1641 4.19131C19.1641 6.47806 21.0178 8.33184 23.3046 8.33184Z" fill="#DD636E"/>
<path d="M34.9999 8.33184C37.2867 8.33184 39.1404 6.47806 39.1404 4.19131C39.1404 1.90456 37.2867 0.0507812 34.9999 0.0507812C32.7132 0.0507812 30.8594 1.90456 30.8594 4.19131C30.8594 6.47806 32.7132 8.33184 34.9999 8.33184Z" fill="#DD636E"/>
<path d="M46.6913 8.33184C48.9781 8.33184 50.8318 6.47806 50.8318 4.19131C50.8318 1.90456 48.9781 0.0507812 46.6913 0.0507812C44.4046 0.0507812 42.5508 1.90456 42.5508 4.19131C42.5508 6.47806 44.4046 8.33184 46.6913 8.33184Z" fill="#DD636E"/>
<path d="M24.5696 8.13523C24.1609 8.26637 23.7341 8.33289 23.3049 8.33238C21.0176 8.33238 19.1641 6.47889 19.1641 4.19158C19.1641 1.90564 21.0176 0.0507812 23.3049 0.0507812C23.7456 0.0507812 24.1711 0.119824 24.5696 0.24793C22.9006 0.78168 21.6936 2.34656 21.6936 4.19158C21.6936 6.03797 22.9006 7.60135 24.5696 8.13523ZM36.264 8.13523C35.8553 8.26637 35.4285 8.33289 34.9992 8.33238C32.7119 8.33238 30.8584 6.47889 30.8584 4.19158C30.8584 1.90564 32.7119 0.0507812 34.9992 0.0507812C35.44 0.0507812 35.8655 0.119824 36.264 0.24793C34.595 0.78168 33.388 2.34656 33.388 4.19158C33.388 6.03797 34.595 7.60135 36.264 8.13523ZM47.9584 8.13523C47.5496 8.26637 47.1229 8.33289 46.6936 8.33238C44.4063 8.33238 42.5528 6.47889 42.5528 4.19158C42.5528 1.90564 44.4063 0.0507812 46.6936 0.0507812C47.1344 0.0507812 47.5599 0.119824 47.9584 0.24793C46.2893 0.78168 45.0824 2.34656 45.0824 4.19158C45.0824 6.03797 46.2893 7.60135 47.9584 8.13523Z" fill="#DA4A54"/>
<path d="M64.8699 16.5136C44.9595 16.0397 25.0406 16.0397 5.13013 16.5136C2.98214 16.5647 1.10513 18.0246 0.571655 20.1059C-0.190552 23.0802 -0.190552 26.0547 0.571655 29.029C1.105 31.1102 2.98214 32.5701 5.13013 32.6213C25.0406 33.0951 44.9595 33.0951 64.8699 32.6213C67.0179 32.5701 68.8949 31.1102 69.4283 29.029C70.1905 26.0547 70.1905 23.0802 69.4283 20.1059C68.8949 18.0246 67.0179 16.5647 64.8699 16.5136Z" fill="#407093"/>
<path d="M69.7974 27.2148C69.7061 27.8191 69.5826 28.4234 69.4272 29.0276C68.8934 31.1097 67.0165 32.5698 64.8687 32.6196C44.9579 33.094 25.0387 33.094 5.12793 32.6196C2.98008 32.57 1.1032 31.1097 0.569453 29.0276C0.414004 28.4233 0.290547 27.819 0.199219 27.2148C1.10484 27.6733 2.48488 27.9601 3.99152 27.9746C24.6622 28.1749 45.3344 28.1749 66.0051 27.9746C67.5119 27.9601 68.8919 27.6733 69.7974 27.2148Z" fill="#365E7D"/>
<path d="M54.7128 4.51571C41.5868 3.63018 28.416 3.63018 15.29 4.51571C10.5857 4.83276 6.82237 8.54467 6.42534 13.2429C5.5353 23.7579 5.5353 34.3293 6.42534 44.8443C6.82237 49.5425 10.5857 53.2546 15.29 53.5715C28.416 54.457 41.5868 54.457 54.7128 53.5715C59.4171 53.2544 63.1804 49.5425 63.5775 44.8443C64.4675 34.3293 64.4675 23.7579 63.5775 13.2429C63.1804 8.54467 59.4171 4.83262 54.7128 4.51571Z" fill="#90D8F9"/>
<path d="M16.3258 53.6401C15.9796 53.6193 15.635 53.5952 15.2903 53.5728C10.5859 53.2555 6.82261 49.5433 6.42503 44.8454C5.53541 34.3303 5.53541 23.759 6.42503 13.2439C6.82248 8.546 10.5859 4.83381 15.2903 4.51648C15.635 4.49406 15.9795 4.47 16.3258 4.44922C13.1714 5.91088 10.9162 8.9835 10.6085 12.6251C9.68359 23.5524 9.68359 34.5383 10.6085 45.4655C10.9162 49.1073 13.1714 52.1783 16.3258 53.6401Z" fill="#75CEF9"/>
<path d="M53.0803 9.50744C41.039 8.70846 28.9579 8.70846 16.9166 9.50744C14.5196 9.66631 12.5765 11.5145 12.3099 13.9019C11.3967 22.0775 11.3967 30.253 12.3099 38.4287C12.5765 40.816 14.5196 42.6642 16.9166 42.8231C28.9579 43.6221 41.039 43.6221 53.0803 42.8231C55.4773 42.6642 57.4205 40.816 57.6871 38.4287C58.6002 30.253 58.6002 22.0774 57.6871 13.9019C57.4205 11.5145 55.4773 9.66631 53.0803 9.50744Z" fill="#DAEEFA"/>
<path d="M18.4427 42.9191C17.9346 42.8887 17.4249 42.8567 16.9167 42.823C14.5205 42.6643 12.5763 40.8163 12.3103 38.4297C11.3966 30.2537 11.3966 22.0776 12.3103 13.9015C12.5763 11.515 14.5206 9.66682 16.9167 9.50822C17.4264 9.47459 17.9361 9.44246 18.4458 9.41211C16.9952 10.1959 15.9613 11.6529 15.7691 13.3791C14.817 21.903 14.817 30.4285 15.7691 38.9524C15.9615 40.6783 16.9937 42.1337 18.4427 42.9191Z" fill="#C0E3F8"/>
<path d="M22.6948 22.3155C25.1087 22.3155 27.0655 20.3587 27.0655 17.9448C27.0655 15.531 25.1087 13.5742 22.6948 13.5742C20.281 13.5742 18.3242 15.531 18.3242 17.9448C18.3242 20.3587 20.281 22.3155 22.6948 22.3155Z" fill="#90D8F9"/>
<path d="M47.3081 22.3155C49.722 22.3155 51.6788 20.3587 51.6788 17.9448C51.6788 15.531 49.722 13.5742 47.3081 13.5742C44.8943 13.5742 42.9375 15.531 42.9375 17.9448C42.9375 20.3587 44.8943 22.3155 47.3081 22.3155Z" fill="#90D8F9"/>
<path d="M24.5481 21.9041C23.9683 22.1763 23.3356 22.3169 22.6951 22.316C20.2812 22.316 18.3242 20.3589 18.3242 17.9451C18.3242 15.5313 20.2812 13.5742 22.6951 13.5742C23.3571 13.5742 23.9855 13.7217 24.5481 13.9862C23.0606 14.6834 22.03 16.1932 22.03 17.9451C22.03 19.697 23.0606 21.2068 24.5481 21.9041ZM49.1611 21.9041C48.5814 22.1763 47.9486 22.3169 47.3082 22.316C44.8943 22.316 42.9373 20.3589 42.9373 17.9451C42.9373 15.5313 44.8943 13.5742 47.3082 13.5742C47.9702 13.5742 48.5985 13.7217 49.1611 13.9862C47.6721 14.6818 46.6414 16.1932 46.6414 17.9451C46.6414 19.697 47.6721 21.2085 49.1611 21.9041Z" fill="#75CEF9"/>
<path d="M35.0014 30.6729C31.5975 30.6729 28.8281 27.9037 28.8281 24.4996C28.8281 24.2195 28.9394 23.9508 29.1375 23.7527C29.3356 23.5546 29.6043 23.4434 29.8844 23.4434C30.1646 23.4434 30.4332 23.5546 30.6313 23.7527C30.8294 23.9508 30.9407 24.2195 30.9407 24.4996C30.9407 26.7387 32.7623 28.5602 35.0012 28.5602C37.2402 28.5602 39.0618 26.7387 39.0618 24.4996C39.0618 24.2195 39.1731 23.9508 39.3712 23.7527C39.5693 23.5546 39.8379 23.4434 40.1181 23.4434C40.3982 23.4434 40.6669 23.5546 40.865 23.7527C41.0631 23.9508 41.1744 24.2195 41.1744 24.4996C41.1746 27.9035 38.4053 30.6729 35.0014 30.6729Z" fill="#DD636E"/>
<path d="M35.001 44.4768C28.9363 44.4768 22.8716 44.2772 16.8492 43.878C13.9355 43.6848 11.586 41.4428 11.2624 38.5468C10.3448 30.3185 10.3448 22.0138 11.2624 13.7855C11.586 10.8895 13.9355 8.64748 16.8492 8.4543C28.894 7.65586 41.1082 7.65586 53.1526 8.4543C56.0663 8.64734 58.4158 10.8895 58.7394 13.7855C59.657 22.0138 59.657 30.3186 58.7394 38.5469C58.4158 41.4429 56.0663 43.6849 53.1526 43.8781C47.1103 44.2777 41.0564 44.4773 35.001 44.4768ZM35.001 9.96818C28.983 9.96818 22.9649 10.1663 16.9891 10.5624C15.0973 10.6877 13.5719 12.1419 13.3621 14.02C12.462 22.0924 12.4621 30.2399 13.3622 38.3123C13.5719 40.1904 15.0973 41.6446 16.9891 41.7699C28.9409 42.5622 41.0612 42.5622 53.013 41.7699C54.9048 41.6446 56.4301 40.1904 56.64 38.3123C57.54 30.2399 57.54 22.0924 56.6399 14.02C56.4301 12.1419 54.9048 10.6877 53.013 10.5624C47.0172 10.1658 41.0099 9.96768 35.001 9.96818Z" fill="#75CEF9"/>
<path d="M21.5941 61.2362C21.5256 61.0556 21.4037 60.9002 21.2446 60.7906C21.0855 60.681 20.8968 60.6226 20.7036 60.623H20.7025C20.5132 60.6228 20.3282 60.6791 20.1712 60.7848C20.0141 60.8904 19.8922 61.0406 19.8211 61.216L19.8138 61.2342L17.6084 67.0246C17.531 67.228 17.5375 67.4537 17.6265 67.6523C17.7155 67.8508 17.8797 68.0059 18.083 68.0833C18.2864 68.1608 18.5121 68.1543 18.7107 68.0653C18.9092 67.9763 19.0643 67.812 19.1417 67.6087L19.4897 66.6949H21.9006L22.2446 67.6064C22.2816 67.7085 22.3385 67.8023 22.4121 67.8822C22.4856 67.9621 22.5743 68.0267 22.673 68.0721C22.7717 68.1175 22.8784 68.1428 22.987 68.1466C23.0956 68.1504 23.2038 68.1326 23.3054 68.0943C23.4071 68.0559 23.5001 67.9977 23.579 67.9231C23.658 67.8486 23.7214 67.759 23.7655 67.6597C23.8096 67.5605 23.8335 67.4534 23.8359 67.3448C23.8383 67.2362 23.8191 67.1282 23.7794 67.0271L21.5941 61.2362ZM20.1145 65.0541L20.7006 63.5152L21.2814 65.0541H20.1145ZM26.0172 60.623C25.7996 60.623 25.591 60.7095 25.4371 60.8633C25.2833 61.0172 25.1969 61.2258 25.1969 61.4434V67.3165C25.1969 67.5341 25.2833 67.7427 25.4371 67.8966C25.591 68.0504 25.7996 68.1368 26.0172 68.1368C26.2347 68.1368 26.4434 68.0504 26.5972 67.8966C26.7511 67.7427 26.8375 67.5341 26.8375 67.3165V61.4434C26.8375 61.2258 26.7511 61.0172 26.5972 60.8633C26.4434 60.7095 26.2347 60.623 26.0172 60.623Z" fill="#F6F1F1"/>
</g>
<defs>
<clipPath id="clip0_5027_3998">
<rect width="70" height="70" fill="white"/>
</clipPath>
</defs>
</svg>
