<svg width="70" height="70" viewBox="0 0 70 70" fill="none" xmlns="http://www.w3.org/2000/svg">
<g clip-path="url(#clip0_5018_5270)">
<path d="M41.3075 41.7988C41.019 42.2045 40.7569 42.6284 40.523 43.0679C40.4695 43.1681 40.4174 43.269 40.3666 43.3707C40.0906 43.9636 39.6413 44.5172 39.0962 44.9946C37.8934 46.0467 36.3329 46.5933 34.7371 46.5933H33.8512L26.0039 48.7631V65.6248L33.8512 66.944H34.2948C35.8455 66.944 37.3863 67.2158 38.8314 67.7779C41.8962 69.1143 45.092 70.0002 48.5427 70.0002H56.5949L58.7188 52.1059L59.7808 43.1538L41.3075 41.7988Z" fill="#FFE0D9"/>
<path d="M28.5586 46.5938H33.853V66.9445H28.5586V46.5938Z" fill="#FE9923"/>
<path d="M61.1084 41.5332L64.1696 42.0084C64.4141 42.0084 64.6058 41.5584 64.8361 41.6059C66.4495 41.9398 67.6633 43.3833 67.6633 45.1135C67.6633 46.8099 66.4963 48.2304 64.9298 48.5998C64.9298 48.5998 64.3718 48.3861 64.0942 48.3861L60.6758 49.5576L61.1084 41.5332Z" fill="#FFE0D9"/>
<path d="M64.9294 48.5998C64.6649 48.6626 64.394 48.6941 64.1222 48.6937L60.6758 49.5571L61.1081 41.5332H64.1222C64.3982 41.5332 64.6659 41.5656 64.9236 41.6275L64.9294 48.5998Z" fill="#FFA28D"/>
<path d="M62.379 69.3875C64.1909 69.3875 66.3185 68.6422 66.5351 66.889C66.5529 66.7449 66.5626 66.5982 66.5626 66.4493C66.5626 64.4885 64.9729 62.8988 63.0121 62.8988L59.7823 62.1113L56.5817 62.8988C54.6209 62.8988 53.0312 64.4885 53.0312 66.4493C53.0312 66.5982 53.041 66.7449 53.0587 66.889C53.2753 68.6422 55.2985 69.414 57.1104 69.414L62.379 69.3875Z" fill="#FFE0D9"/>
<path d="M55.1272 64.9136C55.1263 64.9505 55.1266 64.9884 55.1277 65.0271C55.1605 66.0739 56.0526 66.8903 57.1 66.8903H66.5352C66.3185 68.6434 64.8242 70.0009 63.0124 70.0009H56.582C54.7702 70.0009 53.2758 68.6434 53.0591 66.8903C53.0406 66.7444 53.0313 66.5976 53.0312 66.4506C53.0312 64.8033 54.1547 63.4172 55.6762 63.0176C55.3166 63.5845 55.1261 64.2422 55.1272 64.9136Z" fill="#FFA28D"/>
<path d="M64.5998 62.5505C66.4118 62.5505 68.3279 61.5463 68.5444 59.7931C68.5622 59.649 68.5719 59.5023 68.5719 59.3532C68.5719 57.3924 66.9823 55.8028 65.0215 55.8028L60.2054 55.0332L56.355 55.8028C55.9561 55.8028 55.5726 55.8686 55.2146 55.99C55.2146 55.99 54.5536 56.5419 54.2184 56.8249C53.4467 57.4762 52.8047 58.2645 52.8047 59.3532C52.8047 59.5021 52.8144 59.649 52.8322 59.7931C53.0489 61.5463 55.0573 62.6036 56.8692 62.6036L64.5998 62.5505Z" fill="#FFE0D9"/>
<path d="M54.6209 57.9561L54.621 57.9722C54.6282 58.9841 55.4688 59.7931 56.4806 59.7931H68.5444C68.3277 61.5462 66.8334 62.9037 65.0216 62.9037H56.3553C54.5435 62.9037 53.0491 61.5462 52.8324 59.7931H52.8326C52.8141 59.6472 52.8047 59.5004 52.8047 59.3534C52.8047 57.7912 53.8135 56.4652 55.2149 55.9902C54.8268 56.5724 54.6201 57.2565 54.6209 57.9561Z" fill="#FFA28D"/>
<path d="M66.027 55.445C67.8389 55.445 69.0329 54.5815 69.9716 52.6875C69.9894 52.5434 69.9991 52.3967 69.9991 52.2477C69.9991 50.2869 68.4094 48.6973 66.4486 48.6973H64.9272L64.4346 49.0422L56.9331 48.6973C56.5342 48.6973 56.1507 48.763 55.7928 48.8844C55.7928 48.8844 55.1317 49.4364 54.7965 49.7194C54.0248 50.3707 53.3828 51.159 53.3828 52.2477C53.3828 52.3966 53.3925 52.5433 53.4103 52.6875C53.627 54.4408 55.6354 55.4981 57.4473 55.4981L66.027 55.445Z" fill="#FFE0D9"/>
<path d="M69.9716 52.6894C69.7561 54.4414 68.2616 55.7992 66.449 55.7992H56.9335C55.1223 55.7992 53.6279 54.4414 53.411 52.6894C53.3923 52.5432 53.3829 52.396 53.3828 52.2486C53.3828 50.6881 54.3884 49.3655 55.7885 48.888C55.7901 48.8873 55.7915 48.8864 55.7928 48.8852C56.1604 48.7614 56.5458 48.6986 56.9337 48.6992H64.928C64.9189 49.9048 64.5557 51.0542 63.8877 52.0296C63.6959 52.3096 63.8965 52.6894 64.236 52.6894H69.9716Z" fill="#FFA28D"/>
<path d="M15.4038 49.2729C14.2371 49.2729 13.2911 48.3269 13.2911 47.1602L14.3527 42.5864L13.2911 40.9162V39.719C13.2911 37.1562 15.3762 35.0711 17.939 35.0711H19.2155C19.3276 35.071 19.435 35.0264 19.5142 34.9472C19.5935 34.8679 19.638 34.7605 19.6381 34.6485V29.0377C19.638 28.9256 19.5935 28.8182 19.5142 28.739C19.435 28.6597 19.3276 28.6152 19.2155 28.6151H4.64789C2.0851 28.6154 0 26.5304 0 23.9675V17.7377C0 15.1749 2.0851 13.0898 4.64789 13.0898H19.5493L20.5964 13.6352L24.9594 13.0898C26.1261 13.0898 27.0721 14.0358 27.0721 15.2026C27.0721 16.3693 26.1261 17.3153 24.9594 17.3153L20.5566 16.5384L19.5493 17.3153H4.64789C4.53584 17.3154 4.42842 17.3599 4.34919 17.4392C4.26996 17.5184 4.2254 17.6258 4.22529 17.7379V23.9676C4.2254 24.0796 4.26996 24.1871 4.34919 24.2663C4.42842 24.3455 4.53584 24.3901 4.64789 24.3902H19.2155C21.7783 24.3902 23.8634 26.4753 23.8634 29.0381V34.6489C23.8634 37.2117 21.7783 39.2968 19.2155 39.2968H17.939C17.827 39.2969 17.7195 39.3414 17.6403 39.4207C17.5611 39.4999 17.5165 39.6073 17.5164 39.7194V40.9166L16.5797 42.547L17.5164 47.1606C17.5165 48.327 16.5706 49.2729 15.4038 49.2729Z" fill="#BCBCBC"/>
<path d="M27.0733 15.2005C27.0733 16.368 26.1283 17.3132 24.9606 17.3132H19.5508V13.0879H24.9606C26.1283 13.0879 27.0733 14.0344 27.0733 15.2005Z" fill="#E2E8E8"/>
<path d="M29.7071 19.507H23.7757C22.9977 19.507 22.3672 18.8765 22.3672 18.0986V12.305C22.3672 11.527 22.9977 10.8965 23.7757 10.8965H29.7071V19.507Z" fill="#477DFB"/>
<path d="M67.1848 33.5021H39.9254L30.8716 32.9353C29.3159 32.9353 28.0547 31.674 28.0547 30.1183L28.4524 3.27496C28.4524 1.71924 29.7136 0.458008 31.2694 0.458008L39.9453 0H67.1848C68.7405 0 70.0018 1.26123 70.0018 2.81695V30.6852C70.0018 32.2409 68.7405 33.5021 67.1848 33.5021Z" fill="#82ACFC"/>
<path d="M40.5086 33.5014H30.3677C28.8113 33.5014 27.5508 32.2409 27.5508 30.6845V2.81695C27.5508 1.26055 28.8113 0 30.3677 0H40.5086C38.9522 0 37.6916 1.26055 37.6916 2.81695V30.6846C37.6916 32.2409 38.9522 33.5014 40.5086 33.5014Z" fill="#6A97FC"/>
<path d="M34.0313 24.9542V7.13809C34.0312 7.0456 34.0494 6.95401 34.0848 6.86856C34.1202 6.78311 34.1721 6.70547 34.2375 6.64007C34.3029 6.57468 34.3805 6.5228 34.466 6.48742C34.5514 6.45203 34.643 6.43383 34.7355 6.43385L37.6933 5.63281H63.6623C63.7548 5.63279 63.8464 5.651 63.9318 5.68638C64.0173 5.72177 64.0949 5.77364 64.1603 5.83904C64.2257 5.90444 64.2776 5.98208 64.313 6.06753C64.3484 6.15298 64.3666 6.24456 64.3665 6.33705V25.4729C64.3666 25.5654 64.3484 25.657 64.313 25.7424C64.2776 25.8279 64.2257 25.9055 64.1603 25.9709C64.0949 26.0363 64.0173 26.0882 63.9318 26.1236C63.8464 26.1589 63.7548 26.1771 63.6623 26.1771H37.6933L34.7355 25.6584C34.5487 25.6584 34.3696 25.5842 34.2375 25.4522C34.1054 25.3201 34.0313 25.141 34.0313 24.9542Z" fill="#F1F3F2"/>
<path d="M37.6946 5.63281V26.1764H33.8917C33.7992 26.1765 33.7076 26.1584 33.6221 26.123C33.5366 26.0877 33.459 26.0358 33.3936 25.9704C33.3282 25.905 33.2763 25.8273 33.2409 25.7418C33.2056 25.6563 33.1874 25.5647 33.1875 25.4722V6.33705C33.1876 6.1503 33.2618 5.97121 33.3938 5.83916C33.5259 5.7071 33.705 5.63288 33.8917 5.63281H37.6946Z" fill="#E2E8E8"/>
<path d="M60.5232 30.8958H56.5764C56.4377 30.8958 56.3004 30.8685 56.1722 30.8154C56.0441 30.7623 55.9276 30.6845 55.8295 30.5864C55.7315 30.4883 55.6536 30.3719 55.6006 30.2437C55.5475 30.1156 55.5202 29.9782 55.5202 29.8395C55.5202 29.7008 55.5475 29.5634 55.6006 29.4353C55.6536 29.3071 55.7315 29.1907 55.8295 29.0926C55.9276 28.9945 56.0441 28.9167 56.1722 28.8636C56.3004 28.8105 56.4377 28.7832 56.5764 28.7832H60.5232C61.1068 28.7832 61.5795 29.2561 61.5795 29.8395C61.5795 30.4229 61.1068 30.8958 60.5232 30.8958ZM40.9757 30.8958H37.0289C36.8902 30.8958 36.7529 30.8685 36.6247 30.8154C36.4966 30.7623 36.3801 30.6845 36.282 30.5864C36.1839 30.4883 36.1061 30.3719 36.0531 30.2437C36 30.1156 35.9727 29.9782 35.9727 29.8395C35.9727 29.7008 36 29.5634 36.0531 29.4353C36.1061 29.3071 36.1839 29.1907 36.282 29.0926C36.3801 28.9945 36.4966 28.9167 36.6247 28.8636C36.7529 28.8105 36.8902 28.7832 37.0289 28.7832H40.9757C41.1145 28.7832 41.2518 28.8105 41.38 28.8636C41.5081 28.9166 41.6246 28.9945 41.7227 29.0925C41.8208 29.1906 41.8986 29.3071 41.9517 29.4352C42.0047 29.5634 42.032 29.7008 42.032 29.8395C42.032 29.9782 42.0047 30.1156 41.9517 30.2437C41.8986 30.3719 41.8208 30.4884 41.7227 30.5864C41.6246 30.6845 41.5081 30.7623 41.38 30.8154C41.2518 30.8685 41.1145 30.8958 40.9757 30.8958ZM50.7495 30.8958H46.8027C46.664 30.8958 46.5266 30.8685 46.3985 30.8154C46.2703 30.7623 46.1539 30.6845 46.0558 30.5864C45.9577 30.4883 45.8799 30.3719 45.8268 30.2437C45.7737 30.1156 45.7464 29.9782 45.7464 29.8395C45.7464 29.7008 45.7737 29.5634 45.8268 29.4353C45.8799 29.3071 45.9577 29.1907 46.0558 29.0926C46.1539 28.9945 46.2703 28.9167 46.3985 28.8636C46.5266 28.8105 46.664 28.7832 46.8027 28.7832H50.7495C50.8882 28.7832 51.0256 28.8105 51.1537 28.8636C51.2819 28.9166 51.3983 28.9945 51.4964 29.0925C51.5945 29.1906 51.6723 29.3071 51.7254 29.4352C51.7785 29.5634 51.8058 29.7008 51.8058 29.8395C51.8058 29.9782 51.7785 30.1156 51.7254 30.2437C51.6723 30.3719 51.5945 30.4884 51.4964 30.5864C51.3983 30.6845 51.2819 30.7623 51.1537 30.8154C51.0256 30.8685 50.8882 30.8958 50.7495 30.8958Z" fill="#6A97FC"/>
<path d="M37.7008 30.8958H37.0289C36.8902 30.896 36.7527 30.8688 36.6245 30.8157C36.4963 30.7627 36.3798 30.6849 36.2816 30.5868C36.1835 30.4887 36.1057 30.3722 36.0527 30.2439C35.9997 30.1157 35.9725 29.9783 35.9727 29.8395C35.9726 29.7008 35.9999 29.5634 36.0529 29.4352C36.106 29.307 36.1838 29.1905 36.2819 29.0924C36.38 28.9943 36.4964 28.9165 36.6246 28.8635C36.7528 28.8104 36.8902 28.7831 37.0289 28.7832H37.6923V30.6846C37.6923 30.7563 37.6952 30.8267 37.7008 30.8958Z" fill="#477DFB"/>
<path d="M60.5232 21.888H56.5764C56.2963 21.888 56.0276 21.7767 55.8295 21.5786C55.6314 21.3805 55.5202 21.1118 55.5202 20.8317C55.5202 20.5515 55.6314 20.2829 55.8295 20.0848C56.0276 19.8867 56.2963 19.7754 56.5764 19.7754H60.5232C61.1068 19.7754 61.5795 20.2483 61.5795 20.8317C61.5795 21.4151 61.1068 21.888 60.5232 21.888ZM40.9757 21.888H37.0289C36.7488 21.888 36.4801 21.7767 36.282 21.5786C36.0839 21.3805 35.9727 21.1118 35.9727 20.8317C35.9727 20.5515 36.0839 20.2829 36.282 20.0848C36.4801 19.8867 36.7488 19.7754 37.0289 19.7754H40.9757C41.1145 19.7754 41.2518 19.8027 41.38 19.8558C41.5081 19.9088 41.6246 19.9866 41.7227 20.0847C41.8208 20.1828 41.8986 20.2993 41.9517 20.4274C42.0047 20.5556 42.032 20.693 42.032 20.8317C42.032 20.9704 42.0047 21.1078 41.9517 21.2359C41.8986 21.3641 41.8208 21.4805 41.7227 21.5786C41.6246 21.6767 41.5081 21.7545 41.38 21.8076C41.2518 21.8607 41.1145 21.888 40.9757 21.888Z" fill="#E2E8E8"/>
<path d="M37.6923 19.7754V21.888H37.0289C36.4445 21.888 35.9727 21.4148 35.9727 20.8317C35.9727 20.2486 36.4445 19.7754 37.0289 19.7754H37.6923Z" fill="#D2DBDB"/>
<path d="M48.4819 20.5328L44.0667 16.1177C42.9237 14.9748 42.8391 13.1127 43.9408 11.9298C45.0974 10.6881 47.0421 10.662 48.2317 11.8516L48.7805 12.4003L49.2716 11.9093C50.4144 10.7664 52.2765 10.6817 53.4593 11.7832C54.7011 12.9396 54.7272 14.8847 53.5376 16.0743L49.0792 20.5328C49.04 20.572 48.9935 20.6032 48.9422 20.6244C48.891 20.6456 48.836 20.6566 48.7806 20.6566C48.7251 20.6566 48.6702 20.6456 48.6189 20.6244C48.5677 20.6032 48.5211 20.572 48.4819 20.5328Z" fill="#FF8FB4"/>
<path d="M62.3944 48.647C62.3973 50.5611 60.8465 52.1133 58.9324 52.1133C57.9761 52.1133 57.1113 51.726 56.4846 51.0992C56.1625 50.7782 55.9071 50.3967 55.733 49.9766C55.559 49.5564 55.4698 49.106 55.4706 48.6513V44.9654L39.9805 44.0329C40.1311 43.8202 40.2635 43.5991 40.3692 43.3709C40.4199 43.2695 40.472 43.1682 40.5256 43.0681C42.2903 39.754 45.7523 37.1836 49.4003 37.1836H58.4453C60.6213 37.1836 62.3861 38.947 62.3889 41.1244L62.3944 48.647Z" fill="#FFE0D9"/>
<path d="M44.7618 53.6412C44.629 53.1371 44.8812 52.6087 45.3602 52.4031C46.2666 52.014 47.6156 51.2144 48.7009 49.6493C49.5855 48.3755 50.0338 46.7927 50.0338 44.9442C50.0337 44.7947 50.0636 44.6466 50.1215 44.5088C50.1795 44.3709 50.2643 44.246 50.3711 44.1413C50.478 44.0367 50.6046 43.9544 50.7437 43.8993C50.8827 43.8442 51.0313 43.8175 51.1808 43.8206L54.0812 43.8803C54.8588 43.8963 55.4764 44.5397 55.4603 45.3175L55.4486 45.8808C55.4483 45.8993 55.4443 45.9175 55.4368 45.9344C55.4294 45.9514 55.4187 45.9667 55.4054 45.9795C55.392 45.9923 55.3763 46.0024 55.3591 46.0091C55.3418 46.0158 55.3234 46.0191 55.305 46.0187L52.1075 45.9528C51.9614 47.82 51.4009 49.465 50.4365 50.8539C49.0741 52.8188 47.3939 53.8359 46.191 54.3484C45.6009 54.5997 44.9253 54.2616 44.7618 53.6412Z" fill="#FFA28D"/>
<path d="M29.8635 53.959L30.8082 58.8364V66.9449C30.8082 68.4998 29.5477 69.7619 27.9912 69.7619H5.1476L3.39117 69.4223C1.83477 69.4223 0.574219 68.1604 0.574219 66.6053L0.733223 53.9591C0.733223 55.5154 1.2615 56.7761 2.81777 56.7761H27.991C29.5475 56.7758 29.8635 55.5153 29.8635 53.959Z" fill="#575965"/>
<path d="M30.807 53.9591V58.8366C29.9512 59.3328 28.9793 59.5938 27.99 59.5929H3.52119C3.4287 59.5929 3.33712 59.6111 3.25167 59.6465C3.16622 59.6818 3.08858 59.7337 3.02318 59.7991C2.95778 59.8645 2.90591 59.9422 2.87052 60.0276C2.83514 60.1131 2.81694 60.2046 2.81695 60.2971V66.9451C2.81695 68.5 4.0775 69.762 5.63391 69.762H2.81695C1.26055 69.7619 0 68.5 0 66.9449V53.959C0 55.5153 1.26055 55.7486 2.81695 55.7486H27.9902C29.5464 55.7488 30.807 55.5154 30.807 53.9591Z" fill="#4F4F5B"/>
<path d="M30.8061 46.5494V53.9593C30.8061 55.5155 29.5455 56.7762 27.9891 56.7762H5.3776L2.97832 56.6238C1.42191 56.6238 0.234375 55.2778 0.234375 53.7214L0.393379 46.854C0.393379 45.2977 1.48098 44.2082 2.81604 43.7324H5.63299L15.5451 45.2501L25.1724 43.7324H27.9894C29.5455 43.7324 30.8061 44.993 30.8061 46.5494Z" fill="#6E6F80"/>
<path d="M5.63377 56.7761H2.81695C1.26055 56.7761 0 55.5155 0 53.9593V46.5494C0 44.9931 1.26055 43.7324 2.81695 43.7324V53.9591C2.81695 55.5155 4.0775 56.7761 5.63377 56.7761Z" fill="#575965"/>
<path d="M17.5184 40.916V47.1597C17.5184 48.3273 16.5719 49.2724 15.4057 49.2724C14.2381 49.2724 13.293 48.3273 13.293 47.1597V40.916H17.5184Z" fill="#E2E8E8"/>
<path d="M25.1722 43.7324V50.5789C25.1723 50.6529 25.1577 50.7262 25.1294 50.7945C25.1011 50.8629 25.0596 50.925 25.0073 50.9773C24.9549 51.0296 24.8928 51.0711 24.8245 51.0995C24.7561 51.1278 24.6828 51.1423 24.6088 51.1423H6.19623C6.12224 51.1423 6.04896 51.1278 5.9806 51.0995C5.91223 51.0711 5.85012 51.0296 5.79779 50.9773C5.74547 50.925 5.70397 50.8629 5.67566 50.7945C5.64736 50.7262 5.63279 50.6529 5.63281 50.5789V43.7324H25.1722Z" fill="#B7FFDB"/>
<path d="M20.6375 48.4934H10.1735C9.89333 48.4934 9.62466 48.3821 9.42657 48.1841C9.22847 47.986 9.11719 47.7173 9.11719 47.4371C9.11719 47.157 9.22847 46.8883 9.42657 46.6902C9.62466 46.4921 9.89333 46.3809 10.1735 46.3809H20.6374C20.7761 46.3808 20.9135 46.4081 21.0416 46.4612C21.1698 46.5143 21.2862 46.5921 21.3843 46.6902C21.4824 46.7883 21.5602 46.9047 21.6133 47.0329C21.6664 47.1611 21.6937 47.2984 21.6937 47.4371C21.6937 47.5759 21.6664 47.7132 21.6133 47.8414C21.5602 47.9695 21.4825 48.086 21.3844 48.184C21.2863 48.2821 21.1699 48.3599 21.0417 48.413C20.9136 48.4661 20.7762 48.4934 20.6375 48.4934Z" fill="#E2E8E8"/>
</g>
<defs>
<clipPath id="clip0_5018_5270">
<rect width="70" height="70" fill="white"/>
</clipPath>
</defs>
</svg>
