<svg width="70" height="70" viewBox="0 0 70 70" fill="none" xmlns="http://www.w3.org/2000/svg">
<path d="M9.02344 57.6953H60.9766V68.6328H9.02344V57.6953ZM9.02344 1.36719H60.9766V5.46875H9.02344V1.36719Z" fill="#6E83B7"/>
<path d="M9.02344 5.46875H13.125V57.6953H9.02344V5.46875ZM56.875 5.46875H60.9766V57.6953H56.875V5.46875Z" fill="#466089"/>
<path d="M9.02344 29.5312H60.9766V33.6328H9.02344V29.5312Z" fill="#6E83B7"/>
<path d="M15.7227 11.4844H25.293V28.1641H15.7227V11.4844Z" fill="#FFE352"/>
<path d="M25.293 28.1641H15.7227L16.4062 29.5312H24.6094L25.293 28.1641ZM15.7227 11.4844H25.293L24.6094 10.1172H16.4062L15.7227 11.4844Z" fill="#D3D3D3"/>
<path d="M30.2148 11.4844H39.7852V28.1641H30.2148V11.4844Z" fill="#FFE352"/>
<path d="M39.7852 28.1641H30.2148L30.8984 29.5312H39.1016L39.7852 28.1641ZM30.2148 11.4844H39.7852L39.1016 10.1172H30.8984L30.2148 11.4844Z" fill="#D3D3D3"/>
<path d="M44.707 11.4844H54.2773V28.1641H44.707V11.4844Z" fill="#FFE352"/>
<path d="M54.2773 28.1641H44.707L45.3906 29.5312H53.5938L54.2773 28.1641ZM44.707 11.4844H54.2773L53.5938 10.1172H45.3906L44.707 11.4844Z" fill="#D3D3D3"/>
<path d="M15.7227 39.6484H25.293V56.3281H15.7227V39.6484Z" fill="#FFB0AA"/>
<path d="M25.293 56.3281H15.7227L16.4062 57.6953H24.6094L25.293 56.3281ZM15.7227 39.6484H25.293L24.6094 38.2812H16.4062L15.7227 39.6484Z" fill="#D3D3D3"/>
<path d="M30.2148 39.6484H39.7852V56.3281H30.2148V39.6484Z" fill="#FFB0AA"/>
<path d="M39.7852 56.3281H30.2148L30.8984 57.6953H39.1016L39.7852 56.3281ZM30.2148 39.6484H39.7852L39.1016 38.2812H30.8984L30.2148 39.6484Z" fill="#D3D3D3"/>
<path d="M44.707 39.6484H54.2773V56.3281H44.707V39.6484Z" fill="#FFB0AA"/>
<path d="M54.2773 56.3281H44.707L45.3906 57.6953H53.5938L54.2773 56.3281ZM44.707 39.6484H54.2773L53.5938 38.2812H45.3906L44.707 39.6484Z" fill="#D3D3D3"/>
<path d="M20.7694 47.4039C20.6643 46.9733 20.6881 46.4814 21.0284 46.1975C21.4014 45.8863 21.9756 45.9516 22.147 46.4061C22.2251 46.6134 22.2787 46.826 22.3076 47.0439C22.3771 47.5432 22.3043 48.039 22.0893 48.5312C21.8771 49.021 21.5131 49.4811 20.9973 49.9115C20.5938 50.2481 20.1744 50.4807 19.739 50.6092C19.3013 50.7349 18.8592 50.7616 18.4127 50.6892C17.9691 50.6145 17.5332 50.4406 17.1048 50.1674C16.6765 49.8942 16.27 49.527 15.8853 49.0659L15.521 48.6292C15.1363 48.1681 14.8494 47.7012 14.6603 47.2284C14.4716 46.7503 14.3818 46.2852 14.3906 45.833C14.4024 45.3784 14.5093 44.947 14.7114 44.5389C14.9135 44.1308 15.212 43.762 15.6068 43.4326C16.1313 42.995 16.6531 42.7211 17.172 42.6107C17.6938 42.498 18.1936 42.5258 18.6714 42.6942C18.8799 42.7663 19.0805 42.8596 19.2731 42.9743C19.6917 43.2236 19.6634 43.8023 19.2893 44.1144C18.9528 44.3951 18.4692 44.334 18.0792 44.1341C18.0532 44.1207 18.0272 44.1083 18.0011 44.0966C17.7656 43.9901 17.5226 43.9655 17.2723 44.0228C17.0224 44.0748 16.7534 44.2211 16.4652 44.4615C16.249 44.6419 16.0939 44.8397 15.9998 45.055C15.9058 45.2704 15.8725 45.5059 15.9 45.7615C15.9276 46.0172 16.0185 46.2932 16.173 46.5896C16.3279 46.8807 16.5448 47.1935 16.8237 47.5278L17.1952 47.9731C17.4669 48.2987 17.7306 48.5651 17.9864 48.772C18.2398 48.9761 18.4878 49.1211 18.7305 49.207C18.9737 49.2876 19.2121 49.3038 19.4456 49.2556C19.6796 49.2022 19.9119 49.0793 20.1425 48.8869C20.4134 48.6609 20.6007 48.4313 20.7044 48.1982C20.808 47.9651 20.8351 47.725 20.7854 47.478C20.7808 47.4534 20.7755 47.4287 20.7694 47.4039Z" fill="#AC0000"/>
<path d="M19.7116 40.1621C20.0698 39.8633 20.6023 39.9114 20.9011 40.2695L25.0703 45.267C25.3691 45.6251 25.321 46.1576 24.9629 46.4564C24.6047 46.7552 24.0722 46.7071 23.7734 46.349L19.6042 41.3515C19.3054 40.9934 19.3535 40.4608 19.7116 40.1621ZM22.8644 37.5318C23.3826 37.0995 24.1737 37.4147 24.2525 38.0849L24.6774 41.6975C24.7169 42.033 24.5843 42.3658 24.3249 42.5822L23.6549 43.1411C23.3676 43.3808 22.9477 43.3727 22.6699 43.122C22.3304 42.8157 22.3408 42.2798 22.6919 41.9869L22.7375 41.9489C22.9537 41.7684 23.0597 41.4879 23.0167 41.2095L22.569 38.314C22.5235 38.0195 22.6356 37.7227 22.8644 37.5318ZM28.3418 43.6375C28.1196 43.8228 27.8176 43.8809 27.5426 43.791L24.4863 42.7929C24.1263 42.6753 23.8932 42.3269 23.9219 41.9492C23.962 41.4216 24.4829 41.0688 24.9877 41.2273L28.0552 42.1904C28.6895 42.3895 28.8523 43.2116 28.3418 43.6375Z" fill="#AC0000"/>
<path d="M27.2497 36.3489C27.9008 37.1293 29.1658 36.5536 29.005 35.55L28.6509 33.341C28.5951 32.9928 28.7269 32.6409 28.9977 32.4149L29.09 32.338C29.5141 31.9842 30.1446 32.0411 30.4984 32.4652L34.5681 37.3433C34.8669 37.7014 34.8187 38.2339 34.4606 38.5327C34.1025 38.8315 33.5699 38.7834 33.2712 38.4252L32.5944 37.614C31.9433 36.8336 30.6783 37.4093 30.8391 38.4129L31.1931 40.6219C31.249 40.9701 31.1172 41.322 30.8463 41.548L30.7541 41.6249C30.33 41.9787 29.6994 41.9218 29.3456 41.4977L25.276 36.6196C24.9772 36.2615 25.0253 35.729 25.3835 35.4302C25.7416 35.1314 26.2741 35.1795 26.5729 35.5377L27.2497 36.3489Z" fill="#AC0000"/>
<path d="M39.9715 32.2194C40.2509 31.9863 40.6663 32.0239 40.8993 32.3032C41.1324 32.5826 41.0948 32.9979 40.8155 33.231L37.2922 36.1704C37.0129 36.4034 36.5975 36.3659 36.3644 36.0866C36.1314 35.8072 36.1689 35.3918 36.4483 35.1588L39.9715 32.2194ZM35.6918 35.7899C36.0427 35.4971 36.5646 35.5443 36.8573 35.8952L37.9433 37.1969C38.228 37.5381 38.1821 38.0455 37.8409 38.3301C37.5062 38.6093 37.0101 38.5713 36.7219 38.2443L35.6011 36.9724C35.2931 36.6229 35.3341 36.0883 35.6918 35.7899ZM40.7462 31.5731C41.1086 31.2708 41.65 31.3317 41.9361 31.707L42.9748 33.0693C43.2315 33.406 43.1776 33.8852 42.8525 34.1564C42.517 34.4363 42.0181 34.3913 41.7382 34.0558L40.6408 32.7403C40.3476 32.3889 40.3948 31.8663 40.7462 31.5731ZM34.8488 27.5335C35.1293 27.2995 35.5465 27.3372 35.7805 27.6177C36.0146 27.8982 35.9769 28.3154 35.6964 28.5494L33.6818 30.2301C33.4013 30.4642 32.9841 30.4265 32.7501 30.1459C32.516 29.8654 32.5537 29.4482 32.8343 29.2142L34.8488 27.5335ZM35.6356 26.8771C35.9925 26.5793 36.5233 26.6273 36.8211 26.9842L40.9939 31.986C41.2917 32.3429 41.2438 32.8737 40.8868 33.1715C40.5299 33.4693 39.9991 33.4213 39.7013 33.0644L35.5285 28.0626C35.2307 27.7057 35.2787 27.1749 35.6356 26.8771ZM32.631 30.4092C32.3696 30.0504 32.4314 29.5503 32.7723 29.2659C33.1463 28.9539 33.7063 29.023 33.9932 29.4168L35.4334 31.3937C35.7609 31.839 36.0274 32.2521 36.2328 32.6331C36.4387 33.0088 36.5977 33.3576 36.7098 33.6795C36.8249 33.999 36.9046 34.2966 36.9489 34.5725C36.9909 34.8454 37.0078 35.1001 36.9998 35.3365C36.9894 35.5701 36.9655 35.7904 36.9281 35.9976C36.9046 36.1182 36.88 36.2355 36.8543 36.3495C36.8203 36.5006 36.7352 36.635 36.6162 36.7343L36.5616 36.7799C36.2823 37.0129 35.8669 36.9754 35.6338 36.6961L35.3895 36.4032C35.2914 36.2856 35.3072 36.1107 35.4248 36.0126C35.4744 35.9713 35.5088 35.914 35.5164 35.8499C35.5304 35.7321 35.534 35.5965 35.5272 35.4433C35.5213 35.2429 35.4748 35.0055 35.3877 34.7312C35.301 34.4516 35.1571 34.1268 34.9561 33.7569C34.7579 33.3845 34.4847 32.9575 34.1365 32.4756L32.631 30.4092Z" fill="#AC0000"/>
<path d="M38.3267 24.632C38.6848 24.3332 39.2174 24.3813 39.5162 24.7395L43.6854 29.7369C43.9842 30.0951 43.9361 30.6276 43.5779 30.9264C43.2198 31.2251 42.6873 31.177 42.3885 30.8189L38.2192 25.8214C37.9205 25.4633 37.9686 24.9308 38.3267 24.632ZM41.4795 22.0017C41.9977 21.5694 42.7888 21.8846 42.8676 22.5549L43.2925 26.1675C43.3319 26.503 43.1993 26.8357 42.9399 27.0521L42.27 27.6111C41.9826 27.8508 41.5628 27.8426 41.285 27.5919C40.9455 27.2856 40.9559 26.7497 41.307 26.4568L41.3525 26.4188C41.5688 26.2384 41.6748 25.9578 41.6317 25.6795L41.1841 22.7839C41.1386 22.4894 41.2507 22.1926 41.4795 22.0017ZM46.9569 28.1074C46.7347 28.2928 46.4327 28.3508 46.1576 28.261L43.1014 27.2628C42.7413 27.1453 42.5082 26.7968 42.537 26.4192C42.5771 25.8916 43.098 25.5387 43.6028 25.6972L46.6703 26.6603C47.3046 26.8595 47.4674 27.6815 46.9569 28.1074Z" fill="#AC0000"/>
<path d="M45.8648 20.8188C46.5159 21.5992 47.7809 21.0235 47.6201 20.02L47.266 17.811C47.2102 17.4627 47.342 17.1108 47.6128 16.8848L47.705 16.8079C48.1291 16.4541 48.7597 16.5111 49.1135 16.9352L53.1831 21.8132C53.4819 22.1713 53.4338 22.7039 53.0757 23.0026C52.7175 23.3014 52.185 23.2533 51.8862 22.8952L51.2094 22.0839C50.5584 21.3035 49.2933 21.8793 49.4542 22.8828L49.8082 25.0918C49.864 25.4401 49.7323 25.792 49.4614 26.0179L49.3692 26.0949C48.9451 26.4487 48.3145 26.3917 47.9607 25.9676L43.8911 21.0896C43.5923 20.7314 43.6404 20.1989 43.9985 19.9001C44.3567 19.6013 44.8892 19.6495 45.188 20.0076L45.8648 20.8188Z" fill="#AC0000"/>
<path d="M50.2608 14.6757C50.6236 14.373 51.1648 14.4309 51.4555 14.8033L54.0119 18.0791C54.2437 18.3762 54.198 18.8036 53.9087 19.045C53.6195 19.2862 53.1912 19.2547 52.9404 18.9739L50.1728 15.8745C49.8579 15.5219 49.8978 14.9785 50.2608 14.6757ZM54.3375 20.9821C54.1836 20.7977 54.1196 20.5921 54.1454 20.3652C54.1717 20.1331 54.29 19.9293 54.5004 19.7537C54.7137 19.5758 54.9354 19.4959 55.1656 19.5141C55.3934 19.5293 55.5843 19.6292 55.7381 19.8136C55.8872 19.9923 55.95 20.1965 55.9266 20.4262C55.9032 20.6559 55.7849 20.8598 55.5716 21.0377C55.3612 21.2132 55.1395 21.2931 54.9064 21.2774C54.6762 21.2592 54.4865 21.1608 54.3375 20.9821Z" fill="#AC0000"/>
</svg>
