<svg width="70" height="70" viewBox="0 0 70 70" fill="none" xmlns="http://www.w3.org/2000/svg">
<mask id="mask0_5024_3652" style="mask-type:luminance" maskUnits="userSpaceOnUse" x="0" y="0" width="70" height="70">
<path d="M0 0.000205994H69.9998V70H0V0.000205994Z" fill="white"/>
</mask>
<g mask="url(#mask0_5024_3652)">
<path d="M63.701 60.8398H6.29889C2.82569 60.8398 0 58.0141 0 54.5411V15.4591C0 11.986 2.82569 9.16031 6.29889 9.16031H27.0616L34.648 12.9186L38.511 9.16031H63.701C67.1741 9.16031 69.9998 11.986 69.9998 15.4591V41.4491L65.6918 42.7755L69.9998 52.9684V54.5411C69.9998 58.0141 67.1741 60.8398 63.701 60.8398Z" fill="#FF4A4A"/>
<path d="M69.9999 15.4591C69.9999 11.986 67.1742 9.16031 63.7011 9.16031H38.5111L35 12.5761V60.8398H63.7011C67.1742 60.8398 69.9999 58.0142 69.9999 54.541V52.9683L65.6918 42.7755L69.9999 41.4491V15.4591Z" fill="#D01273"/>
<path fill-rule="evenodd" clip-rule="evenodd" d="M26.8945 9.16064L70.0014 52.9688V41.2271L38.3298 9.16064H26.8945Z" fill="#FFD845"/>
<path d="M18.1469 52.6367C17.799 52.6367 17.4464 52.5483 17.1235 52.3616C16.1425 51.7955 15.8065 50.5412 16.3727 49.5603L28.4723 28.6033C29.0387 27.6225 30.2927 27.2861 31.2738 27.8527C32.2546 28.4188 32.5907 29.6731 32.0244 30.6541L19.9248 51.6111C19.545 52.2689 18.8557 52.6367 18.1469 52.6367Z" fill="#FFF4F4"/>
<path d="M14.3615 32.7927C13.6522 32.7927 12.9615 33.1605 12.5819 33.8177C12.0167 34.797 12.3533 36.0538 13.3328 36.6192C14.312 37.1846 15.5687 36.8479 16.1342 35.8684C16.2695 35.6355 16.3573 35.378 16.3924 35.1109C16.4276 34.8438 16.4094 34.5723 16.339 34.3123C16.2699 34.0519 16.1499 33.8077 15.9859 33.594C15.8219 33.3802 15.6171 33.2012 15.3834 33.0671C15.0729 32.8872 14.7203 32.7925 14.3615 32.7927ZM14.3475 40.9941C13.271 40.9946 12.2135 40.7107 11.2819 40.1712C8.34395 38.475 7.33401 34.7047 9.03 31.7669C10.7263 28.8289 14.4965 27.8189 17.4342 29.515C18.8575 30.3367 19.8755 31.6634 20.3007 33.2508C20.7261 34.8381 20.5078 36.4961 19.6861 37.9192C18.5479 39.8905 16.4754 40.994 14.3475 40.9941Z" fill="#FFF4F4"/>
<path fill-rule="evenodd" clip-rule="evenodd" d="M38.3283 9.16064H35V17.3994L69.9999 52.9688V41.2271L38.3283 9.16064Z" fill="#FFB454"/>
<path d="M34.8693 43.4567C34.16 43.4567 33.4693 43.8245 33.0898 44.4817C32.9545 44.7146 32.8667 44.9721 32.8315 45.2392C32.7964 45.5063 32.8146 45.7777 32.885 46.0378C32.954 46.2982 33.074 46.5424 33.2381 46.7561C33.4021 46.9699 33.6069 47.149 33.8407 47.283C34.0736 47.4183 34.331 47.5061 34.5981 47.5413C34.8652 47.5765 35.1366 47.5583 35.3966 47.488C35.6571 47.4189 35.9013 47.299 36.115 47.1349C36.3288 46.9709 36.5079 46.7661 36.642 46.5324C36.7773 46.2995 36.8651 46.042 36.9003 45.7749C36.9354 45.5078 36.9173 45.2363 36.8468 44.9763C36.7778 44.7159 36.6578 44.4717 36.4938 44.258C36.3298 44.0442 36.125 43.8652 35.8913 43.7311C35.5807 43.5512 35.2282 43.4565 34.8693 43.4567ZM34.8559 51.6621C33.7898 51.6621 32.7377 51.3825 31.7897 50.8351C30.3666 50.0134 29.3485 48.6867 28.9233 47.0994C28.4978 45.512 28.7162 43.854 29.5379 42.4309C31.2341 39.4931 35.0044 38.4827 37.9421 40.179C39.3653 41.0007 40.3833 42.3274 40.8085 43.9148C41.234 45.5021 41.0156 47.1601 40.194 48.5832C39.3724 50.0063 38.0456 51.0245 36.4583 51.4498C35.9357 51.5904 35.397 51.6617 34.8559 51.6621Z" fill="#FFF4F4"/>
<path d="M49.3535 15.3816C46.5264 15.3816 44.2266 17.6815 44.2266 20.5085C44.2266 22.1713 45.4967 23.8509 46.2537 24.7041C46.7036 25.2111 48.2566 26.8652 49.3535 26.8652C50.4504 26.8652 52.0034 25.2111 52.4533 24.7041C53.2103 23.8509 54.4804 22.1713 54.4804 20.5085C54.4804 17.6815 52.1806 15.3816 49.3535 15.3816Z" fill="#FFEF4A"/>
<path d="M52.4533 29.1052C52.0034 28.5982 50.4505 26.9441 49.3535 26.9441C48.2566 26.9441 46.7036 28.5982 46.2537 29.1052C45.4967 29.9584 44.2266 31.638 44.2266 33.3008C44.2266 36.1279 46.5264 38.4277 49.3535 38.4277C52.1806 38.4277 54.4804 36.1279 54.4804 33.3008C54.4804 31.638 53.2103 29.9584 52.4533 29.1052Z" fill="#FFEF4A"/>
<path d="M55.6888 22.0801C54.026 22.0801 52.3464 23.3502 51.4931 24.1072C50.9862 24.5572 49.332 26.1102 49.332 27.207C49.332 28.3039 50.9862 29.8569 51.4931 30.3069C52.3464 31.0639 54.026 32.334 55.6888 32.334C58.5158 32.334 60.8157 30.0341 60.8157 27.207C60.8157 24.38 58.5158 22.0801 55.6888 22.0801Z" fill="#FFEF4A"/>
<path d="M47.2171 24.1072C46.3638 23.3502 44.6842 22.0801 43.0215 22.0801C40.1944 22.0801 37.8945 24.38 37.8945 27.207C37.8945 30.0341 40.1944 32.334 43.0215 32.334C44.6842 32.334 46.3638 31.0639 47.2171 30.3069C47.724 29.8569 49.3782 28.3039 49.3782 27.207C49.3782 26.11 47.724 24.5572 47.2171 24.1072Z" fill="#FFEF4A"/>
<path d="M40.8079 43.9157C40.3827 42.3284 39.3646 41.0017 37.9414 40.18C37.0462 39.6618 36.0341 39.3792 35 39.3589V43.4619C35.3137 43.482 35.6185 43.5744 35.8906 43.732C36.1243 43.866 36.3291 44.0452 36.4931 44.2589C36.6571 44.4727 36.7771 44.7169 36.8461 44.9773C36.9166 45.2373 36.9348 45.5088 36.8996 45.7758C36.8645 46.0429 36.7767 46.3004 36.6413 46.5333C36.5072 46.767 36.3282 46.9718 36.1144 47.1359C35.9007 47.2999 35.6565 47.4199 35.3961 47.489C35.2665 47.5237 35.1338 47.5457 35 47.5547V51.6582C35.4924 51.6473 35.9818 51.5777 36.4577 51.4507C38.045 51.0253 39.3717 50.0073 40.1934 48.5841C41.0151 47.161 41.2333 45.503 40.8079 43.9157Z" fill="#F6EFEA"/>
</g>
</svg>
