<svg width="70" height="70" viewBox="0 0 70 70" fill="none" xmlns="http://www.w3.org/2000/svg">
<g clip-path="url(#clip0_5025_3814)">
<path d="M46.6836 4.23859V8.51078C46.6836 10.8431 44.7929 12.7338 42.4606 12.7338H39.0799C38.5199 12.7338 37.9828 12.9562 37.5868 13.3521L30.4678 20.4712C29.8027 21.1363 28.6656 20.6652 28.6656 19.7247V13.7895C28.6656 13.6509 28.6383 13.5136 28.5852 13.3855C28.5322 13.2574 28.4544 13.141 28.3564 13.043C28.2583 12.9449 28.1419 12.8672 28.0139 12.8141C27.8858 12.7611 27.7485 12.7338 27.6098 12.7338H27.5902C25.2579 12.7338 23.3672 10.8431 23.3672 8.51078V4.23859C23.3672 1.90631 25.2579 0.015625 27.5902 0.015625H42.4606C44.7929 0.015625 46.6836 1.90631 46.6836 4.23859Z" fill="#F9EE80"/>
<path d="M29.7239 64.6691L23.3645 66.0768L22.3047 47.7109H24.668C28.4782 47.7109 31.4262 51.0503 30.9535 54.8311L29.7239 64.6691Z" fill="#996ACC"/>
<path d="M30.7946 69.9673H24.427L23.3672 64.668H29.7182C31.4788 64.668 32.9061 66.0953 32.9061 67.8558C32.9061 69.022 31.9608 69.9673 30.7946 69.9673Z" fill="#565E75"/>
<path d="M3.63546 69.864L3.52062 69.8231C2.44956 69.4414 1.89066 68.2637 2.27238 67.1927L6.91794 54.1562L10.9115 55.5794L6.26593 68.6158C5.88421 69.6868 4.70652 70.2457 3.63546 69.864Z" fill="#AF602D"/>
<path d="M22.3058 49.8298H5.34766V38.9872C5.34766 34.439 9.03469 30.752 13.5829 30.752H14.0704C18.6187 30.752 22.3057 34.439 22.3057 38.9872L22.3058 49.8298Z" fill="#55D47B"/>
<path d="M25.1342 69.8435C26.237 69.4506 26.8125 68.238 26.4194 67.1352L21.7943 54.1562L17.8008 55.5794L22.4258 68.5583C22.7343 69.4239 23.5543 69.9646 24.4232 69.9671C24.6656 69.9677 24.9062 69.9259 25.1342 69.8435Z" fill="#D97C41"/>
<path d="M24.4271 23.3334C24.4271 28.86 20.197 33.3981 14.796 33.8867C14.474 33.9173 14.1508 33.9323 13.8274 33.9317C9.95639 33.9317 6.57096 31.8568 4.72266 28.7585C4.72266 28.7585 5.48281 23.4686 9.67201 19.1274C9.99275 18.7949 10.3331 18.4818 10.6911 18.1899C15.4672 14.2922 21.3992 15.9152 21.3992 15.9152C23.2714 17.8266 24.4271 20.4449 24.4271 23.3334Z" fill="#FFDDCF"/>
<path d="M14.796 33.8863C14.474 33.9169 14.1508 33.9319 13.8274 33.9312C9.95639 33.9312 6.57096 31.8564 4.72266 28.7581C4.72266 28.7581 5.48281 23.4682 9.67201 19.1269C9.99275 18.7944 10.3331 18.4814 10.6911 18.1895C9.8101 22.5813 10.0409 28.4469 14.796 33.8863Z" fill="#FFCBBE"/>
<path d="M21.3968 15.9157C19.2741 15.8945 16.1829 16.4364 13.5194 19.1237C11.7867 20.8678 11.7809 22.3767 11.0996 23.8465C10.926 24.2362 10.728 24.6146 10.507 24.9796L4.72008 28.759C3.77125 27.1727 3.22656 25.3159 3.22656 23.3339C3.22656 17.9342 7.26236 13.4789 12.4819 12.8189C12.9272 12.7622 13.3758 12.734 13.8247 12.7344C16.7908 12.7342 19.4724 13.952 21.3968 15.9157Z" fill="#6E768F"/>
<path d="M10.507 24.9791C9.46668 26.6935 7.6959 28.4025 4.72008 28.7585C3.77125 27.1722 3.22656 25.3154 3.22656 23.3334C3.22656 17.9337 7.26236 13.4784 12.4819 12.8184C11.3881 15.117 9.6708 19.7609 10.507 24.9791Z" fill="#565E75"/>
<path d="M26.4964 54.4635V56.1978C26.4964 57.3632 25.5518 58.3093 24.3849 58.3093H9.88873C9.88873 58.3093 7.90672 57.6491 7.86871 57.6491C7.85039 57.6547 5.46014 58.2431 5.46014 58.2431C5.46014 58.2431 5.4615 58.246 5.46437 58.2502C2.37754 57.8263 0 55.1772 0 51.9748V40.2898C0 38.5344 1.42311 37.1113 3.17994 37.1113C4.03717 37.1113 4.81564 37.4507 5.38713 38.0023V38.0038L6.1965 47.1127L9.56225 45.5895H17.6239C22.5239 45.5895 26.4964 49.5634 26.4964 54.4635Z" fill="#E4996D"/>
<path d="M10.4297 58.3093H6.38133C2.88324 58.3093 0.046875 55.4728 0.046875 51.9748V40.2898C0.046875 38.5344 1.46998 37.1113 3.22682 37.1113C4.10523 37.1113 4.89916 37.4675 5.47488 38.0418C6.04924 38.6176 6.40539 39.4115 6.40539 40.2898V43.4782C6.40539 44.6451 7.35135 45.5897 8.51687 45.5897H9.60926C9.0941 46.0259 8.42404 46.979 8.42404 48.9807V55.4502C8.42404 55.4502 8.35623 57.4097 10.4297 58.3093Z" fill="#D97C41"/>
<path d="M25.8391 49.8295H23.7193L23.1562 47.7097L23.7193 45.5898H25.8391C27.0098 45.5898 27.9589 46.5389 27.9589 47.7097C27.9589 48.8804 27.0098 49.8295 25.8391 49.8295Z" fill="#FFDDCF"/>
<path d="M23.722 45.5912V49.8307H17.3493C14.2879 49.8307 11.6647 47.6414 11.117 44.6294L10.707 42.3742C10.3091 40.186 11.9901 38.1719 14.2141 38.1719C16.4168 38.1719 18.0924 40.1498 17.7302 42.3225C17.5269 43.5423 18.351 44.696 19.5709 44.8993L23.722 45.5912Z" fill="#8CE09F"/>
<path d="M40.3225 64.669L46.6818 65.7951L47.7417 47.7109H45.3783C41.5681 47.7109 38.6202 51.0503 39.0928 54.8311L40.3225 64.669Z" fill="#55D47B"/>
<path d="M39.256 69.9673H45.6236L46.6834 64.668H40.3324C38.5717 64.668 37.1445 66.0953 37.1445 67.8558C37.1445 69.022 38.0898 69.9673 39.256 69.9673Z" fill="#565E75"/>
<path d="M66.4128 69.864L66.5276 69.8231C67.5987 69.4414 68.1576 68.2637 67.7758 67.1927L63.1303 54.1562L59.1367 55.5794L63.7823 68.6158C64.164 69.6868 65.3417 70.2457 66.4128 69.864Z" fill="#D97C41"/>
<path d="M47.7422 49.8298H64.7004V38.9872C64.7004 34.439 61.0133 30.752 56.4651 30.752H55.9776C51.4294 30.752 47.7423 34.439 47.7423 38.9872V49.8298H47.7422Z" fill="#996ACC"/>
<path d="M65.5365 28.7578C63.6882 31.8561 60.3028 33.931 56.4317 33.931C56.3782 33.931 56.3246 33.931 56.2712 33.9296L51.0853 32.4854H51.0839C47.942 30.6456 45.832 27.2349 45.832 23.3328C45.832 20.4443 46.9877 17.826 48.8599 15.9146C48.8599 15.9146 51.146 15.2895 54.0219 15.7483C55.7786 16.0271 57.7564 16.7111 59.568 18.1892C59.9261 18.4811 60.2664 18.7942 60.5871 19.1266C64.7765 23.4677 65.5365 28.7578 65.5365 28.7578Z" fill="#FFDDCF"/>
<path d="M56.2712 33.9297C56.0014 33.9258 55.7318 33.9113 55.4632 33.8861C50.062 33.3976 45.832 28.8594 45.832 23.3328C45.832 20.4443 46.9877 17.826 48.8599 15.9146C48.8599 15.9146 51.146 15.2895 54.0219 15.7483C51.5865 20.1488 49.62 27.2391 56.2712 33.9297Z" fill="#FFCBBE"/>
<path d="M67.0294 23.3339C67.0294 25.3159 66.4846 27.1727 65.5359 28.759C62.5601 28.403 60.7893 26.694 59.749 24.9796C59.528 24.6146 59.33 24.2362 59.1563 23.8465C58.4751 22.3769 58.4695 20.8678 56.7366 19.1237C55.6808 18.0596 54.5589 17.3304 53.4553 16.8418L52.1997 15.1021L48.8594 15.9157C50.6907 14.0477 53.2076 12.854 56.0018 12.7442C56.144 12.7372 56.2876 12.7344 56.4311 12.7344C56.8859 12.7344 57.3335 12.7625 57.774 12.8189C62.9938 13.4789 67.0294 17.9342 67.0294 23.3339Z" fill="#6E768F"/>
<path d="M56.0018 12.7441C55.2642 13.6957 54.2872 15.1103 53.4554 16.8417C51.7761 16.0957 50.1404 15.9029 48.8594 15.9156C50.6907 14.0476 53.2076 12.8541 56.0018 12.7441Z" fill="#565E75"/>
<path d="M44.9127 69.8435C43.8099 69.4506 43.2345 68.238 43.6275 67.1352L48.2526 54.1562L52.2461 55.5794L47.6211 68.5583C47.3126 69.4239 46.4926 69.9646 45.6238 69.9671C45.3813 69.9677 45.1407 69.9259 44.9127 69.8435Z" fill="#AF602D"/>
<path d="M70.0001 40.2898V51.9748C70.0001 55.4728 67.1637 58.3093 63.6657 58.3093H51.2727L45.611 54.1567L44.8086 49.8296C46.3683 47.2859 49.1737 45.5897 52.3761 45.5897H61.5301C62.6956 45.5897 63.6416 44.6451 63.6416 43.4782V40.2898C63.6416 39.4115 63.9978 38.6174 64.5721 38.0418C65.1478 37.4675 65.9418 37.1113 66.8202 37.1113C68.577 37.1112 70.0001 38.5344 70.0001 40.2898Z" fill="#E4996D"/>
<path d="M57.1456 58.3095H45.6154C44.4485 58.3095 43.5039 57.3634 43.5039 56.198V54.4637C43.5039 49.5636 47.4763 45.5898 52.3764 45.5898H55.9139V55.6981C55.9139 55.6981 55.9434 57.4563 57.1456 58.3095Z" fill="#D97C41"/>
<path d="M44.2097 49.8294H46.3295L47.0333 47.7099L46.3295 45.5898H44.2097C43.0389 45.5898 42.0898 46.5389 42.0898 47.7097C42.0898 48.8803 43.0389 49.8294 44.2097 49.8294Z" fill="#FFDDCF"/>
<path d="M46.3281 45.5911V49.8306H52.7009C55.7623 49.8306 58.3855 47.6413 58.9332 44.6292L59.3432 42.3742C59.7411 40.186 58.0601 38.1719 55.8361 38.1719C53.6334 38.1719 51.9578 40.1498 52.32 42.3225C52.5233 43.5423 51.6991 44.696 50.4793 44.8993L46.3281 45.5911Z" fill="#B18CD9"/>
<path d="M40.3226 5.3107H29.7237C29.1406 5.3107 28.668 4.83807 28.668 4.25496C28.668 3.67186 29.1406 3.19922 29.7237 3.19922H40.3226C40.9057 3.19922 41.3783 3.67186 41.3783 4.25496C41.3783 4.83807 40.9057 5.3107 40.3226 5.3107ZM40.3226 9.55008H29.7237C29.1406 9.55008 28.668 9.07744 28.668 8.49434C28.668 7.91123 29.1406 7.43859 29.7237 7.43859H40.3226C40.9057 7.43859 41.3783 7.91123 41.3783 8.49434C41.3783 9.07744 40.9057 9.55008 40.3226 9.55008Z" fill="#6E768F"/>
<path d="M50.9227 26.0773C50.6427 26.0773 50.3742 25.9661 50.1762 25.7681C49.9782 25.5701 49.867 25.3015 49.867 25.0215V23.3324C49.867 22.7493 50.3396 22.2766 50.9227 22.2766C51.5058 22.2766 51.9785 22.7493 51.9785 23.3324V25.0215C51.9785 25.3015 51.8672 25.5701 51.6693 25.7681C51.4713 25.9661 51.2027 26.0773 50.9227 26.0773ZM19.1261 25.0174C18.9874 25.0174 18.8501 24.9901 18.722 24.9371C18.594 24.884 18.4776 24.8063 18.3795 24.7082C18.2815 24.6102 18.2037 24.4938 18.1507 24.3657C18.0976 24.2376 18.0703 24.1003 18.0703 23.9617V22.2725C18.0703 21.6894 18.5429 21.2168 19.1261 21.2168C19.7092 21.2168 20.1818 21.6894 20.1818 22.2725V23.9617C20.1818 24.1003 20.1545 24.2376 20.1014 24.3657C20.0484 24.4938 19.9706 24.6102 19.8726 24.7082C19.7745 24.8063 19.6582 24.884 19.5301 24.9371C19.402 24.9901 19.2647 25.0174 19.1261 25.0174Z" fill="#495560"/>
</g>
<defs>
<clipPath id="clip0_5025_3814">
<rect width="70" height="70" fill="white"/>
</clipPath>
</defs>
</svg>
