<svg width="70" height="70" viewBox="0 0 70 70" fill="none" xmlns="http://www.w3.org/2000/svg">
<g clip-path="url(#clip0_5026_3879)">
<path d="M51.8483 57.7591C67.7981 57.7591 80.7279 44.8293 80.7279 28.8796C80.7279 12.9298 67.7981 0 51.8483 0C35.8986 0 22.9688 12.9298 22.9688 28.8796C22.9688 44.8293 35.8986 57.7591 51.8483 57.7591Z" fill="#35495E"/>
<path d="M51.8495 3.98247V11.9492C48.2756 11.946 44.7938 13.0833 41.911 15.1957L37.2305 8.74262C41.4724 5.63996 46.594 3.97231 51.8495 3.98247Z" fill="#F5EFCA"/>
<path d="M66.4667 8.74262L61.7862 15.1957C58.9033 13.0833 55.4216 11.946 51.8477 11.9492V3.98247C57.1032 3.97231 62.2247 5.63996 66.4667 8.74262Z" fill="#3F5C6C"/>
<path d="M75.5278 21.1823L67.9395 23.642C66.8309 20.248 64.6766 17.2919 61.7852 15.1972L66.4656 8.74414C70.7209 11.8323 73.8924 16.1853 75.5278 21.1823ZM75.5278 36.5781C73.8924 41.575 70.7209 45.928 66.4656 49.0162L61.7852 42.5631C64.6766 40.4684 66.8309 37.5123 67.9395 34.1183L75.5278 36.5781Z" fill="#F5EFCA"/>
<path d="M66.4667 49.0156C62.224 52.1168 57.1029 53.7843 51.8477 53.7757V45.809C55.4216 45.8122 58.9033 44.6749 61.7862 42.5625L66.4667 49.0156Z" fill="#3F5C6C"/>
<path d="M51.8495 45.809V53.7757C46.594 53.7859 41.4724 52.1182 37.2305 49.0156L41.911 42.5625C44.7938 44.6749 48.2756 45.8122 51.8495 45.809Z" fill="#F5EFCA"/>
<path d="M41.9107 42.562L37.2302 49.0151C32.9749 45.9269 29.8034 41.5739 28.168 36.5769L35.7563 34.1172C36.8649 37.5112 39.0192 40.4673 41.9107 42.562Z" fill="#3F5C6C"/>
<path d="M35.7564 23.6513C34.641 27.0476 34.641 30.7115 35.7564 34.1077V34.1177L28.168 36.5774C26.5482 31.5733 26.5482 26.1858 28.168 21.1816L35.7564 23.6414V23.6513Z" fill="#F5EFCA"/>
<path d="M41.9107 15.1972C39.0192 17.2919 36.8649 20.248 35.7563 23.642L28.168 21.1823C29.8034 16.1853 32.9749 11.8323 37.2302 8.74414L41.9107 15.1972ZM76.7454 28.8802C76.7475 31.494 76.3375 34.0919 75.5305 36.5781L67.9421 34.1183V34.1084C69.0575 30.7121 69.0575 27.0482 67.9421 23.652V23.642L75.5305 21.1823C76.3375 23.6684 76.7475 26.2663 76.7454 28.8802ZM64.7952 28.8802C64.7982 30.2401 64.583 31.5917 64.1579 32.8835L54.6874 29.8063C54.8865 29.2049 54.8865 28.5554 54.6874 27.954L64.1579 24.8769C64.583 26.1686 64.7982 27.5202 64.7952 28.8802Z" fill="#3F5C6C"/>
<path d="M68.777 28.8805C68.7802 30.6568 68.4978 32.4221 67.9405 34.1087L64.1562 32.8838C65.0061 30.2826 65.0061 27.4785 64.1562 24.8772L67.9405 23.6523C68.4978 25.339 68.7802 27.1042 68.777 28.8805Z" fill="#E64C3C"/>
<path d="M64.157 32.8838C63.3078 35.4837 61.6593 37.7491 59.4466 39.3568L53.601 31.3004C54.1087 30.9268 54.488 30.4049 54.6865 29.8066L64.157 32.8838ZM51.8483 31.868V41.8265C49.1181 41.8278 46.4578 40.9631 44.25 39.3568L50.0956 31.3004C50.6057 31.6691 51.2189 31.8677 51.8483 31.868Z" fill="#F5EFCA"/>
<path d="M51.8487 41.8252V45.8086C48.2748 45.8118 44.793 44.6745 41.9102 42.5621L44.2504 39.3555C46.4582 40.9617 49.1185 41.8264 51.8487 41.8252Z" fill="#4FBA6F"/>
<path d="M48.8608 28.8803C48.8594 29.1951 48.9099 29.508 49.0102 29.8064L39.5397 32.8836C38.6899 30.2823 38.6899 27.4782 39.5397 24.877L49.0102 27.9541C48.9099 28.2525 48.8594 28.5654 48.8608 28.8803Z" fill="#F5EFCA"/>
<path d="M38.9014 28.8805C38.8984 30.2405 39.1136 31.5921 39.5387 32.8838L35.7545 34.1087C34.6391 30.7125 34.6391 27.0486 35.7545 23.6523L39.5387 24.8772C39.1136 26.169 38.8984 27.5206 38.9014 28.8805Z" fill="#4FBA6F"/>
<path d="M44.2485 18.4039C42.0358 20.0116 40.3873 22.277 39.5381 24.8769L35.7539 23.652V23.642C36.8625 20.248 39.0168 17.2919 41.9082 15.1973L44.2485 18.4039Z" fill="#E64C3C"/>
<path d="M51.8487 11.9492V15.9326C49.1185 15.9314 46.4582 16.796 44.2504 18.4023L41.9102 15.1957C44.793 13.0833 48.2748 11.946 51.8487 11.9492Z" fill="#4FBA6F"/>
<path d="M51.8483 15.9336V25.8921C51.2189 25.8924 50.6057 26.091 50.0956 26.4597L44.25 18.4033C46.4578 16.797 49.1181 15.9323 51.8483 15.9336Z" fill="#F5EFCA"/>
<path d="M59.4461 18.4033L53.6004 26.4597C53.0904 26.091 52.4771 25.8924 51.8477 25.8921V15.9336C54.578 15.9323 57.2383 16.797 59.4461 18.4033ZM50.095 26.4597C49.5873 26.8333 49.2081 27.3552 49.0096 27.9535L39.5391 24.8763C40.3883 22.2764 42.0368 20.011 44.2494 18.4033L50.095 26.4597Z" fill="#3F5C6C"/>
<path d="M44.2485 39.3558L41.9082 42.5624C39.0168 40.4678 36.8625 37.5117 35.7539 34.1177V34.1077L39.5381 32.8828C40.3873 35.4827 42.0358 37.7481 44.2485 39.3558Z" fill="#E64C3C"/>
<path d="M50.095 31.3004L44.2494 39.3568C42.0368 37.7491 40.3883 35.4837 39.5391 32.8838L49.0096 29.8066C49.2081 30.4049 49.5873 30.9268 50.095 31.3004Z" fill="#3F5C6C"/>
<path d="M61.7862 42.5621C58.9033 44.6745 55.4216 45.8118 51.8477 45.8086V41.8252C54.5779 41.8264 57.2382 40.9617 59.446 39.3555L61.7862 42.5621Z" fill="#E64C3C"/>
<path d="M59.446 39.3552C57.2382 40.9615 54.5779 41.8262 51.8477 41.8249V31.8665C52.477 31.8661 53.0903 31.6675 53.6003 31.2988L59.446 39.3552Z" fill="#3F5C6C"/>
<path d="M67.9399 34.1084V34.1184C66.8313 37.5124 64.677 40.4685 61.7856 42.5631L59.4453 39.3565C61.658 37.7488 63.3065 35.4834 64.1557 32.8835L67.9399 34.1084ZM67.9399 23.642V23.652L64.1557 24.8769C63.3065 22.277 61.658 20.0116 59.4453 18.4039L61.7856 15.1973C64.677 17.2919 66.8313 20.248 67.9399 23.642Z" fill="#4FBA6F"/>
<path d="M64.1575 24.8753L54.687 27.9525C54.4885 27.3543 54.1093 26.8323 53.6016 26.4587L59.4472 18.4023C61.6598 20.0101 63.3083 22.2754 64.1575 24.8753Z" fill="#F5EFCA"/>
<path d="M61.7862 15.1957L59.446 18.4023C57.2382 16.796 54.5779 15.9314 51.8477 15.9326V11.9492C55.4216 11.946 58.9033 13.0833 61.7862 15.1957Z" fill="#E64C3C"/>
<path d="M51.8469 31.8677C53.4969 31.8677 54.8345 30.5301 54.8345 28.8801C54.8345 27.2301 53.4969 25.8926 51.8469 25.8926C50.1969 25.8926 48.8594 27.2301 48.8594 28.8801C48.8594 30.5301 50.1969 31.8677 51.8469 31.8677Z" fill="#E64C3C"/>
<path d="M32.5156 66.8818H6.77922C4.66919 66.8818 2.75935 65.6072 1.91406 63.6348H37.3808C36.5355 65.6072 34.6257 66.8818 32.5156 66.8818Z" fill="#E0E0E0"/>
<path d="M34.6464 63.6348C33.8011 65.6072 31.8913 66.8818 29.7812 66.8818H32.5169C34.6269 66.8818 36.5368 65.6072 37.3821 63.6348H34.6464Z" fill="#CCCCCC"/>
<path d="M38.6245 46.4821C37.3346 44.6986 35.0919 44.7374 33.1009 45.2643C33.039 46.199 32.945 47.0912 32.8228 47.942C35.444 46.9955 36.3271 47.5271 36.6198 47.9319C37.9504 49.7718 35.9575 54.8162 31.7345 58.0805C30.8276 58.7815 29.975 59.0135 29.128 58.7901C29.0509 58.7694 28.9747 58.7456 28.8995 58.7186C28.3809 59.4936 27.8575 60.1649 27.3555 60.7396C27.7287 60.9313 28.1073 61.0789 28.4913 61.1806C28.9004 61.2892 29.3218 61.3443 29.7451 61.3445C30.7383 61.3444 31.9505 61.0403 33.2475 60.0378C35.5217 58.28 37.4573 55.8577 38.5583 53.3923C39.8049 50.6007 39.8284 48.1467 38.6245 46.4821Z" fill="#C6C6C6"/>
<path d="M33.1843 43.0406C33.0396 58.7384 24.0252 63.6336 24.0252 63.6336H11.7256C11.7256 63.6336 2.71124 58.7384 2.56643 43.0406C2.56415 42.8291 2.73393 42.6562 2.94542 42.6562H32.8052C32.8555 42.6563 32.9052 42.6663 32.9515 42.6857C32.9978 42.7051 33.0398 42.7335 33.0751 42.7692C33.1103 42.805 33.1381 42.8474 33.1569 42.894C33.1756 42.9406 33.185 42.9904 33.1843 43.0406Z" fill="#E0E0E0"/>
<path d="M31.0961 58.5006C30.4225 58.8655 29.7735 58.9607 29.128 58.7903C29.0509 58.7697 28.9747 58.7458 28.8995 58.7189C28.3809 59.4939 27.8575 60.1652 27.3555 60.7398C27.7287 60.9315 28.1073 61.0791 28.4913 61.1808C28.6331 61.2184 28.7765 61.2497 28.9211 61.2745C29.6102 60.5458 30.3606 59.6302 31.0961 58.5006ZM32.8228 47.9423C33.7177 47.6192 34.4097 47.4686 34.9451 47.4261C35.0497 46.6034 35.1256 45.7772 35.1728 44.9492C34.4846 44.963 33.7782 45.0854 33.1009 45.2647C33.039 46.1994 32.945 47.0916 32.8228 47.9423Z" fill="#BABABA"/>
<path d="M31.3992 42.6562C31.3992 58.6586 22.2383 63.6336 22.2383 63.6336H24.0261C24.0261 63.6336 33.0401 58.7384 33.1852 43.0405C33.1871 42.8291 33.0175 42.6562 32.8062 42.6562H31.3992Z" fill="#CCCCCC"/>
<path d="M2.92969 47.9277C4.62643 59.7754 11.7286 63.6347 11.7286 63.6347H24.0286C24.0286 63.6347 31.1307 59.7754 32.8275 47.9277H2.92969Z" fill="#FFAA5C"/>
<path d="M31.0372 47.9277C29.3404 59.7751 22.2386 63.6345 22.2383 63.6347H24.0261C24.0261 63.6347 31.1282 59.7754 32.825 47.9277H31.0372Z" fill="#FF9838"/>
<path d="M14.8206 42.6562V52.5241C14.8206 52.8379 14.566 53.0926 14.2521 53.0926C13.9383 53.0926 13.6836 52.8379 13.6836 52.5241V42.6562H14.8206Z" fill="#994E37"/>
<path d="M15.6024 59.4851H12.8714C12.0321 59.4851 11.3516 58.8047 11.3516 57.9652V54.0483C11.3516 53.9442 11.3943 53.8448 11.4698 53.7733L13.9761 51.397C14.0465 51.3302 14.1399 51.293 14.2369 51.293C14.3339 51.293 14.4273 51.3302 14.4977 51.397L17.004 53.7733C17.0413 53.8087 17.0711 53.8513 17.0914 53.8986C17.1117 53.9459 17.1222 53.9968 17.1222 54.0483V57.9652C17.1223 58.8047 16.4418 59.4851 15.6024 59.4851Z" fill="#FFE55A"/>
<path d="M13.9752 51.3969L13.1914 52.1401L15.635 54.4569C15.6724 54.4924 15.7022 54.5352 15.7226 54.5826C15.743 54.63 15.7535 54.681 15.7535 54.7326V58.6492C15.7535 58.9582 15.6607 59.2452 15.5023 59.4851H15.6015C16.4409 59.4851 17.1214 58.8046 17.1214 57.9652V54.0482C17.1214 53.9968 17.1109 53.9458 17.0906 53.8986C17.0703 53.8513 17.0405 53.8086 17.0032 53.7732L14.4968 51.3969C14.4264 51.3302 14.3331 51.293 14.236 51.293C14.139 51.293 14.0456 51.3302 13.9752 51.3969Z" fill="#FFD91D"/>
</g>
<defs>
<clipPath id="clip0_5026_3879">
<rect width="70" height="70" fill="white"/>
</clipPath>
</defs>
</svg>
