<svg width="30" height="29" viewBox="0 0 30 29" fill="none" xmlns="http://www.w3.org/2000/svg">
<path d="M29.125 14.634C29.125 16.7405 28.6415 18.7384 27.7754 20.5306C25.4611 25.3196 20.415 27.9921 14.5625 27.9921C9.79872 27.9921 5.56918 26.44 2.91232 23.0387C1.08363 20.6977 0 17.7876 0 14.634C0 6.89865 6.51984 0.62793 14.5625 0.62793C22.6052 0.62793 29.125 6.89865 29.125 14.634Z" fill="#8AE8F5"/>
<path d="M26.2141 6.1163V17.3928C26.2141 23.4929 21.1602 28.5336 14.8188 28.6382C14.7339 28.6396 14.649 28.6403 14.5641 28.6404C9.80022 28.6404 5.57092 26.4401 2.91406 23.0387V6.1163C2.91406 5.64273 3.31325 5.25879 3.80564 5.25879H25.3225C25.8149 5.25879 26.2141 5.64273 26.2141 6.1163Z" fill="#FCA20C"/>
<path d="M26.2128 6.1163V17.3928C26.2128 23.4929 21.1589 28.5336 14.8175 28.6382C14.7326 28.6396 14.6477 28.6403 14.5628 28.6404C10.4571 28.6404 6.74879 27.0055 4.10156 24.3766V6.1163C4.10156 5.64273 4.50075 5.25879 4.99314 5.25879H25.3212C25.8136 5.25879 26.2128 5.64273 26.2128 6.1163Z" fill="#FFB23C"/>
<path d="M27.8753 20.3145C25.6098 25.2195 20.5012 28.6405 14.561 28.6405C14.044 28.6405 13.5335 28.6141 13.0304 28.5636C13.0208 28.5135 13.0159 28.4627 13.0156 28.4118V17.4356C13.0156 16.9621 13.4148 16.5781 13.9072 16.5781H26.9837C27.4761 16.5781 27.8753 16.9621 27.8753 17.4356V20.3145Z" fill="#D43147"/>
<path d="M14.5637 28.6405C14.4551 28.6405 14.347 28.6388 14.239 28.6366C14.218 28.5633 14.2073 28.4878 14.207 28.4118V17.4356C14.207 16.9621 14.6062 16.5781 15.0986 16.5781H26.9864C27.4788 16.5781 27.8779 16.9621 27.8779 17.4356V20.3145C25.6124 25.2195 20.5038 28.6405 14.5637 28.6405Z" fill="#EF3C54"/>
<path d="M20.7432 8.00273C20.7432 8.6342 20.211 9.14608 19.5544 9.14608C18.8979 9.14608 18.3657 8.6342 18.3657 8.00273C18.3657 7.37125 18.8979 6.85938 19.5544 6.85938C20.211 6.85938 20.7432 7.37125 20.7432 8.00273ZM10.0442 6.85938C9.38768 6.85938 8.85547 7.37125 8.85547 8.00273C8.85547 8.6342 9.38768 9.14608 10.0442 9.14608C10.7008 9.14608 11.233 8.6342 11.233 8.00273C11.233 7.37125 10.7008 6.85938 10.0442 6.85938Z" fill="#895348"/>
<path d="M20.1482 5.14509V8.00347C20.1482 8.31921 19.882 8.57514 19.5538 8.57514C19.2256 8.57514 18.9594 8.31921 18.9594 8.00347V5.14509C18.9594 2.93853 17.0929 1.14335 14.7987 1.14335C12.5045 1.14335 10.638 2.93853 10.638 5.14509V8.00347C10.638 8.31921 10.3718 8.57514 10.0436 8.57514C9.71539 8.57514 9.44922 8.31921 9.44922 8.00347V5.14509C9.44922 2.30809 11.849 0 14.7987 0C17.7484 0 20.1482 2.30809 20.1482 5.14509Z" fill="#CD968D"/>
<path d="M17.5934 17.9508C17.5934 18.4559 17.1676 18.8655 16.6424 18.8655C16.1172 18.8655 15.6914 18.4559 15.6914 17.9508C15.6914 17.4457 16.1172 17.0361 16.6424 17.0361C17.1676 17.0361 17.5934 17.4457 17.5934 17.9508ZM24.2506 17.0361C23.7254 17.0361 23.2996 17.4457 23.2996 17.9508C23.2996 18.4559 23.7254 18.8655 24.2506 18.8655C24.7758 18.8655 25.2016 18.4559 25.2016 17.9508C25.2016 17.4457 24.7758 17.0361 24.2506 17.0361Z" fill="#B6273C"/>
<path d="M24.7232 15.6639V17.9506C24.7232 18.0719 24.6731 18.1882 24.584 18.274C24.4948 18.3598 24.3738 18.408 24.2477 18.408C24.1216 18.408 24.0007 18.3598 23.9115 18.274C23.8223 18.1882 23.7722 18.0719 23.7722 17.9506V15.6639C23.7722 13.8987 22.279 12.4625 20.4437 12.4625C18.6083 12.4625 17.1151 13.8987 17.1151 15.6639V17.9506C17.1151 18.0719 17.065 18.1882 16.9758 18.274C16.8866 18.3598 16.7657 18.408 16.6396 18.408C16.5135 18.408 16.3925 18.3598 16.3033 18.274C16.2142 18.1882 16.1641 18.0719 16.1641 17.9506V15.6639C16.1641 13.3943 18.0839 11.5479 20.4437 11.5479C22.8034 11.5479 24.7232 13.3943 24.7232 15.6639Z" fill="#FFE2BD"/>
<path d="M19.6567 28.6405H6.7783C6.28591 28.6405 5.88672 28.2566 5.88672 27.783V21.0372C5.88672 20.5636 6.28591 20.1797 6.7783 20.1797H19.6567C20.1491 20.1797 20.5483 20.5636 20.5483 21.0372V27.783C20.5483 28.2566 20.1491 28.6405 19.6567 28.6405Z" fill="#B5F3FB"/>
<path d="M19.6554 28.6405H8.24314C7.75075 28.6405 7.35156 28.2566 7.35156 27.783V21.0372C7.35156 20.5636 7.75075 20.1797 8.24314 20.1797H19.6554C20.1478 20.1797 20.547 20.5636 20.547 21.0372V27.783C20.547 28.2566 20.1478 28.6405 19.6554 28.6405Z" fill="#DCFBFF"/>
<path d="M18.8915 25.383C18.8915 26.4591 17.9845 27.3315 16.8657 27.3315C15.7469 27.3315 14.8398 26.4591 14.8398 25.383C14.8398 24.3069 15.7469 23.4346 16.8657 23.4346C17.9845 23.4346 18.8915 24.3069 18.8915 25.383Z" fill="#B5F3FB"/>
<path d="M18.8715 24.2375L15.672 27.3147C15.6369 27.3485 15.5951 27.3754 15.5492 27.3937C15.5033 27.4119 15.4541 27.4214 15.4043 27.4214C15.3546 27.4214 15.3054 27.4119 15.2595 27.3937C15.2136 27.3754 15.1718 27.3485 15.1367 27.3147L15.0118 27.1946C14.9767 27.1608 14.9488 27.1206 14.9298 27.0765C14.9107 27.0323 14.9009 26.9849 14.9009 26.9371C14.9009 26.8893 14.9107 26.842 14.9298 26.7978C14.9488 26.7537 14.9767 26.7135 15.0118 26.6797L18.2113 23.6025C18.2464 23.5687 18.2882 23.5419 18.3341 23.5236C18.38 23.5053 18.4292 23.4959 18.4789 23.4959C18.5286 23.4959 18.5779 23.5053 18.6238 23.5236C18.6697 23.5419 18.7114 23.5687 18.7466 23.6025L18.8715 23.7227C18.9425 23.7909 18.9824 23.8835 18.9823 23.9801C18.9823 24.0766 18.9424 24.1692 18.8715 24.2375ZM15.5013 24.672C15.8451 24.672 16.1238 24.404 16.1238 24.0733C16.1238 23.7427 15.8451 23.4746 15.5013 23.4746C15.1576 23.4746 14.8789 23.7427 14.8789 24.0733C14.8789 24.404 15.1576 24.672 15.5013 24.672ZM18.3819 26.2451C18.0381 26.2451 17.7594 26.5132 17.7594 26.8438C17.7594 27.1745 18.0381 27.4425 18.3819 27.4425C18.7257 27.4425 19.0043 27.1745 19.0043 26.8438C19.0043 26.5132 18.7257 26.2451 18.3819 26.2451Z" fill="#01A2BB"/>
<path d="M20.5483 22.4717H5.88672V21.4141H20.5483V22.4717Z" fill="#2F7589"/>
<path d="M11.0157 25.7536V26.2395C11.0157 26.3153 10.9843 26.388 10.9286 26.4416C10.8729 26.4952 10.7973 26.5253 10.7185 26.5253H6.91438C6.83556 26.5253 6.75997 26.4952 6.70423 26.4416C6.6485 26.388 6.61719 26.3153 6.61719 26.2395V25.7536C6.61719 25.6778 6.6485 25.6051 6.70423 25.5514C6.75997 25.4978 6.83556 25.4677 6.91438 25.4677H10.7185C10.7973 25.4677 10.8729 25.4978 10.9286 25.5514C10.9843 25.6051 11.0157 25.6778 11.0157 25.7536ZM13.0168 23.7051H6.91438C6.83556 23.7051 6.75997 23.7352 6.70423 23.7888C6.6485 23.8424 6.61719 23.9151 6.61719 23.9909V24.4768C6.61719 24.5527 6.6485 24.6254 6.70423 24.679C6.75997 24.7326 6.83556 24.7627 6.91438 24.7627H13.0168C13.0956 24.7627 13.1712 24.7326 13.2269 24.679C13.2827 24.6254 13.314 24.5527 13.314 24.4768V23.9909C13.314 23.9151 13.2827 23.8424 13.2269 23.7888C13.1712 23.7352 13.0956 23.7051 13.0168 23.7051Z" fill="#9DC6D4"/>
</svg>
