<svg width="347" height="419" viewBox="0 0 347 419" fill="none" xmlns="http://www.w3.org/2000/svg">
<g clip-path="url(#clip0_1916_200291)">
<path d="M216.498 52.2001C208.698 30.8001 196.298 28.8 196.298 28.8C191.198 21.3 172.598 19.8 172.598 19.8C172.598 19.8 153.998 21.3 148.898 28.8C148.898 28.8 136.498 30.8001 128.698 52.2001C120.898 73.6001 118.398 208.2 118.398 208.2L172.498 177L226.598 204.7C226.598 204.7 224.098 73.6001 216.298 52.2001H216.498Z" fill="#111216"/>
<path d="M198.102 135.7H172.602H147.102L145.602 177H172.602H199.602L198.102 135.7Z" fill="#FCB996"/>
<path d="M172.602 136H147.102C147.102 136 154.302 155.7 172.602 155.7C190.902 155.7 198.102 136 198.102 136H172.602Z" fill="#E08C6D"/>
<path d="M172.599 43.4C188.284 43.4 200.999 33.6846 200.999 21.7C200.999 9.71542 188.284 0 172.599 0C156.914 0 144.199 9.71542 144.199 21.7C144.199 33.6846 156.914 43.4 172.599 43.4Z" fill="#111216"/>
<path d="M208.102 110.8C208.102 110.8 217.602 108.4 218.702 99.7003C219.802 91.0003 215.702 86.8003 212.402 86.8003C209.102 86.8003 208.502 90.5003 208.502 90.5003V98.7003C208.502 98.7003 208.502 105.1 208.102 110.9V110.8Z" fill="#FCB996"/>
<path d="M135.501 110.8C135.501 110.8 126.001 108.4 124.901 99.7003C123.801 91.0003 127.901 86.8003 131.201 86.8003C134.501 86.8003 135.101 90.5003 135.101 90.5003V98.7003C135.101 98.7003 135.101 105.1 135.501 110.9V110.8Z" fill="#FCB996"/>
<path d="M208.902 99.1002V68.0002C208.902 38.7002 172.002 41.9002 172.002 41.9002C172.002 41.9002 135.102 38.7002 135.102 68.0002V99.1002C135.102 99.1002 135.102 106.7 135.602 113.6C135.802 116.1 136.102 118.6 136.502 120.5C137.902 127.7 144.102 135 149.702 139.4C155.202 143.8 161.802 148 172.102 148C182.402 148 188.902 143.8 194.502 139.4C200.002 135 206.302 127.6 207.702 120.5C208.102 118.6 208.402 116.1 208.602 113.6C209.102 106.7 209.102 99.1002 209.102 99.1002H208.902Z" fill="#FCB996"/>
<path d="M185.801 101.8C187.458 101.8 188.801 99.9197 188.801 97.6001C188.801 95.2805 187.458 93.4001 185.801 93.4001C184.144 93.4001 182.801 95.2805 182.801 97.6001C182.801 99.9197 184.144 101.8 185.801 101.8Z" fill="#111216"/>
<path d="M156.199 101.8C157.856 101.8 159.199 99.9197 159.199 97.6001C159.199 95.2805 157.856 93.4001 156.199 93.4001C154.542 93.4001 153.199 95.2805 153.199 97.6001C153.199 99.9197 154.542 101.8 156.199 101.8Z" fill="#111216"/>
<path d="M182.099 88.3002C181.299 87.9002 180.699 87.0002 180.699 86.0002C180.699 85.0002 181.799 83.7002 183.099 83.6002C185.599 83.4002 188.399 84.0002 190.799 85.2002C192.399 86.0002 192.699 88.3002 191.099 89.5002C189.499 90.7002 189.299 90.1002 188.499 89.6002C186.199 88.4002 184.199 88.5002 183.599 88.6002C183.099 88.6002 182.599 88.6002 182.199 88.3002H182.099Z" fill="#111216"/>
<path d="M159.1 88.3002C159.9 87.9002 160.5 87.0002 160.5 86.0002C160.5 85.0002 159.4 83.7002 158.1 83.6002C155.6 83.4002 152.8 84.0002 150.4 85.2002C148.8 86.0002 148.5 88.3002 150.1 89.5002C151.7 90.7002 151.9 90.1002 152.7 89.6002C155 88.4002 157 88.5002 157.6 88.6002C158.1 88.6002 158.6 88.6002 159 88.3002H159.1Z" fill="#111216"/>
<g opacity="0.5">
<path d="M149.701 129.4C155.997 129.4 161.101 124.296 161.101 118C161.101 111.704 155.997 106.6 149.701 106.6C143.405 106.6 138.301 111.704 138.301 118C138.301 124.296 143.405 129.4 149.701 129.4Z" fill="#ED9C88"/>
<path d="M193.302 129.4C199.598 129.4 204.702 124.296 204.702 118C204.702 111.704 199.598 106.6 193.302 106.6C187.006 106.6 181.902 111.704 181.902 118C181.902 124.296 187.006 129.4 193.302 129.4Z" fill="#ED9C88"/>
</g>
<path d="M164.902 119.8C164.902 119.8 175.802 119.8 178.602 119.8C176.702 126.7 166.802 126.7 164.902 119.8Z" fill="white"/>
<path d="M172.101 109.8C170.901 109.5 169.701 109.2 168.501 108.7C166.801 107.8 166.301 105.5 167.401 103.9C168.601 101.6 170.001 99.4002 171.601 97.4002C171.701 97.3002 171.901 97.2002 172.001 97.3002C172.201 97.3002 172.201 97.6002 172.201 97.7002C171.401 100.3 170.301 102.6 169.101 105C168.501 105.9 168.601 106.8 169.301 107.4C170.301 108 171.301 108.6 172.301 109.2C172.601 109.4 172.401 110 172.001 109.9L172.101 109.8Z" fill="#111216"/>
<path d="M130.799 102C128.799 102 127.299 100.8 126.699 98.6002C125.999 96.1002 126.699 92.7002 128.599 92.0002C129.399 91.7002 129.999 91.9002 130.299 92.0002C131.199 92.6002 131.299 93.8002 131.299 94.0002C131.299 94.3002 131.099 94.6002 130.699 94.7002C130.399 94.7002 130.099 94.5002 129.999 94.1002C129.999 93.9002 129.899 93.3002 129.599 93.1002C129.499 93.1002 129.299 93.1002 128.999 93.1002C127.999 93.5002 127.299 96.1002 127.899 98.2002C128.299 99.5002 129.199 101 131.599 100.6C131.899 100.6 132.299 100.8 132.299 101.1C132.299 101.4 132.099 101.8 131.799 101.8C131.499 101.8 131.099 101.8 130.799 101.8V102Z" fill="#915F44"/>
<path d="M213.199 102C212.899 102 212.499 102 212.199 102C211.899 102 211.599 101.6 211.699 101.3C211.699 101 212.099 100.7 212.399 100.8C214.799 101.2 215.699 99.8002 216.099 98.4002C216.699 96.2002 215.999 93.7002 214.999 93.3002C214.699 93.2002 214.499 93.2002 214.399 93.3002C214.099 93.5002 213.999 94.0002 213.999 94.3002C213.999 94.6002 213.699 94.9002 213.299 94.9002C212.999 94.9002 212.699 94.6002 212.699 94.2002C212.699 94.1002 212.799 92.8002 213.699 92.2002C213.999 92.0002 214.599 91.8002 215.399 92.2002C217.299 92.9002 217.899 96.3002 217.299 98.8002C216.699 101 215.199 102.2 213.199 102.2V102Z" fill="#915F44"/>
<path d="M208.902 90.4001C173.502 83.5001 157.802 54.6001 157.802 54.6001C157.402 59.3001 147.902 67.3001 144.802 73.0001C136.202 89.3001 135.402 104.2 135.402 104.2L132.302 86.8001C132.302 86.8001 122.002 62.3001 143.502 41.8001C165.002 21.4001 195.402 23.6001 206.402 48.6001C217.502 73.6001 208.902 90.4001 208.902 90.4001Z" fill="#111216"/>
<path d="M23.3008 403C23.3008 403 23.2008 410.2 21.5008 413.1C19.9008 416 18.8008 415.5 18.8008 412.6C18.8008 409.7 19.3008 402.4 19.3008 402.4L23.3008 402.9V403Z" fill="#FCB996"/>
<path d="M18.5007 412.7C18.5007 412.7 17.5007 416.1 15.3007 417.3C13.1007 418.4 13.9007 415 15.0007 411.4C16.1007 407.8 18.3007 401.2 18.3007 401.2L21.8007 400.8L18.4007 412.8L18.5007 412.7Z" fill="#FCB996"/>
<path d="M14.3991 414.1C14.3991 414.1 13.3991 417.5 11.1991 418.7C8.99915 419.9 9.79915 416.4 10.8991 412.8C11.9991 409.2 14.1991 402.6 14.1991 402.6L17.6992 402.2L14.2991 414.2L14.3991 414.1Z" fill="#FCB996"/>
<path d="M37.1005 380.5C37.1005 380.5 35.3005 383.5 34.1005 385C33.0005 386.5 24.1005 393.8 19.0005 397C13.9005 400.2 13.7005 401.2 8.90048 405.8C4.10048 410.5 -0.999523 416.3 0.100477 418.2C1.20048 420.1 5.50048 418.7 10.2005 413.8C14.8005 408.9 15.9005 406.3 19.4005 404.7C22.9005 403.1 30.8005 400.1 31.9005 400.2C34.7005 400.5 33.2005 404.2 31.9005 406.4C30.6005 408.6 29.5005 412.1 29.1005 416.1C28.7005 420.1 30.1005 418.9 31.6005 418.9C34.3005 418.9 35.4005 414.2 36.7005 411.3C38.0005 408.4 44.7005 404.5 45.7005 397.2C46.7005 389.9 51.2005 386.4 51.2005 386.4L37.1005 380.5Z" fill="#FCB996"/>
<path d="M10.9023 413.3C13.6023 408.6 18.1023 404.7 23.3023 403.1C22.7023 403.4 22.1023 403.7 21.5023 404C17.3023 406.2 13.8023 409.5 10.9023 413.3Z" fill="#111216"/>
<path d="M18.8008 411.6C19.2008 409 19.9008 406.5 20.9008 404.1C20.5008 406.7 19.8008 409.2 18.8008 411.6Z" fill="#111216"/>
<path d="M14 415.5C14.6 412.6 15.5 409.7 16.7 407C16.1 409.9 15.2 412.8 14 415.5Z" fill="#111216"/>
<path d="M28.3008 369.8L23.3008 385.2L55.9008 398.8L61.7008 378.3L28.3008 369.8Z" fill="#00C6E1"/>
<path d="M237.201 262.9C242.201 290.5 261.601 418.9 259.101 418.9H91.1008C87.1008 420 101.001 291.6 107.801 262.9L100.101 269.8C103.701 250.2 108.501 231.3 114.701 214.8C116.401 210.4 118.101 206.1 120.001 202C120.801 200.3 121.601 198.7 122.401 197.1C124.401 193.1 126.601 189.3 128.801 185.8C132.801 176.9 137.201 170.4 142.301 167.4C143.201 167 144.201 166.7 145.201 166.3C145.201 166.3 145.301 166.3 145.401 166.3H144.101C144.301 166.3 145.901 163.9 146.101 163.8C146.201 163.8 146.201 166.2 146.401 166.2C147.001 165.8 147.501 165.4 148.101 165C148.101 165 154.601 168.4 168.101 169.2C170.101 169.3 171.901 169.4 173.701 169.4H174.601C176.401 169.4 178.301 169.4 180.201 169.2C193.701 168.4 200.201 165 200.201 165C200.201 165 200.201 165 200.301 165.1C200.801 165.5 201.301 165.8 201.801 166.2C201.901 166.2 202.001 166.2 202.101 166.2C203.401 166.6 204.601 167.1 205.801 167.6C209.801 170 213.401 174.5 216.701 180.7C217.601 182.3 218.401 184.1 219.201 185.9C219.201 185.9 219.201 186 219.301 186.1C220.401 187.8 221.501 189.6 222.501 191.5C224.001 194.2 225.501 197 226.901 200C236.701 220.4 243.601 246.2 248.401 273.1L237.201 263.1V262.9Z" fill="white"/>
<path d="M212.799 418.9H133.199C133.299 416.6 133.899 407.1 134.699 393.1C135.699 374.2 137.099 347.1 138.399 318.2C138.999 305.3 139.699 289.8 140.499 273.7C140.499 272.6 140.599 271.4 140.699 270.3C143.199 219.8 146.099 164.3 146.099 164.3C146.099 164.3 145.999 164.4 145.899 164.5C145.899 164.3 145.999 164 146.099 163.8C146.899 164.2 154.599 167.8 169.899 168.1C176.599 168.2 184.799 167.7 194.499 166C196.299 165.7 198.199 165.3 200.199 164.9C200.299 167 203.199 220.9 205.599 270.3C205.599 271.4 205.699 272.6 205.799 273.7C206.599 290 207.299 305.6 207.899 318.6C209.099 346.8 210.499 373.3 211.499 392.1C212.299 406.4 212.899 416.3 212.999 419L212.799 418.9Z" fill="#00C6E1"/>
<path d="M149.902 170.4C162.802 173.8 176.302 173.8 189.302 171.2C190.502 170.9 191.802 170.7 193.102 170.5C194.902 170.1 196.602 169.6 198.402 169.3C196.602 170.3 194.702 171.3 192.702 172C184.902 175.1 176.302 176.5 167.902 175.8C161.602 175.2 155.202 173.7 149.902 170.4Z" fill="#111216"/>
<path d="M165.102 262.9C158.802 269.7 149.602 273.4 140.402 273.7C140.402 272.6 140.502 271.4 140.602 270.3C149.202 270 157.702 267.3 165.102 263V262.9Z" fill="#00B3CC"/>
<path d="M205.702 273.7C196.102 273.7 186.402 270 179.902 262.9C187.702 267.4 196.502 270.1 205.502 270.3C205.502 271.4 205.602 272.6 205.702 273.7Z" fill="#00B3CC"/>
<path d="M145.902 163.6C145.902 163.6 115.502 165 87.2016 208.7C58.9016 252.4 20.6016 380.6 20.6016 380.6L70.0016 395.1C70.0016 395.1 109.902 293.8 121.202 255.5L146.002 163.6H145.902Z" fill="white"/>
<path d="M323 403C323 403 323.1 410.2 324.8 413.1C326.4 416 327.5 415.5 327.5 412.6C327.5 409.7 327 402.4 327 402.4L323 402.9V403Z" fill="#FCB996"/>
<path d="M327.8 412.7C327.8 412.7 328.8 416.1 331 417.3C333.2 418.5 332.4 415 331.3 411.4C330.2 407.8 328 401.2 328 401.2L324.5 400.8L327.9 412.8L327.8 412.7Z" fill="#FCB996"/>
<path d="M331.902 414.1C331.902 414.1 332.902 417.5 335.102 418.7C337.302 419.9 336.502 416.4 335.402 412.8C334.302 409.2 332.102 402.6 332.102 402.6L328.602 402.2L332.002 414.2L331.902 414.1Z" fill="#FCB996"/>
<path d="M309.202 380.5C309.202 380.5 311.002 383.5 312.202 385C313.302 386.5 322.202 393.8 327.302 397C332.402 400.2 332.602 401.2 337.402 405.8C342.202 410.4 347.302 416.3 346.202 418.2C345.102 420.1 340.802 418.7 336.102 413.8C331.502 408.9 330.402 406.3 326.902 404.7C323.402 403.1 315.502 400.1 314.402 400.2C311.602 400.5 313.102 404.2 314.402 406.4C315.702 408.6 316.802 412.1 317.202 416.1C317.602 420.1 316.202 418.9 314.702 418.9C312.002 418.9 310.902 414.2 309.602 411.3C308.302 408.4 301.602 404.5 300.602 397.2C299.602 389.9 295.102 386.4 295.102 386.4L309.202 380.5Z" fill="#FCB996"/>
<path d="M335.4 413.3C332.6 409.5 329 406.2 324.8 404C324.2 403.6 323.6 403.4 323 403.1C328.2 404.7 332.7 408.6 335.4 413.3Z" fill="#111216"/>
<path d="M327.502 411.6C326.502 409.2 325.802 406.7 325.402 404.1C326.402 406.5 327.102 409 327.502 411.6Z" fill="#111216"/>
<path d="M332.302 415.5C331.102 412.8 330.202 409.9 329.602 407C330.802 409.7 331.702 412.6 332.302 415.5Z" fill="#111216"/>
<path d="M318.102 370.9L323.002 386.3L290.402 399.9L284.602 379.3L318.102 370.9Z" fill="#00C6E1"/>
<path d="M200 164.8C200 164.8 229.9 167.7 258.2 211.4C286.5 255.1 325.5 381.8 325.5 381.8L276.1 396.3C276.1 396.3 236.2 295 224.9 256.7L200 164.9V164.8Z" fill="white"/>
<path d="M99.1 320.6C103 304.6 107.7 288.1 112.3 272.3C111.4 280.6 109.5 288.8 107.3 296.9C105 305 102.4 312.9 99 320.6H99.1Z" fill="#111216"/>
<path d="M246.701 318.9C243.801 312 241.701 304.9 240.001 297.6C238.401 290.4 237.101 283 236.801 275.5C240.201 289.5 243.801 304.8 246.701 318.9Z" fill="#111216"/>
<path d="M212.799 418.9H133.199C133.299 416.6 133.899 407.1 134.699 393.1C160.199 396 185.999 395.5 211.299 392C212.099 406.3 212.699 416.2 212.799 418.9Z" fill="#010544"/>
<path d="M141.399 169.9C136.099 175.1 130.599 180 124.999 184.8L125.299 183.1C129.599 188.9 133.899 195.3 137.999 201.3C137.399 201.2 133.499 200.2 132.999 200.2C129.499 199.7 125.599 199.8 122.599 201.8C122.199 202 121.699 202.5 121.299 202.7L121.799 201C125.399 213.9 128.799 226.9 131.399 240.1C127.699 230.7 124.599 221.1 121.499 211.5C120.399 208 119.299 204.4 118.199 200.9C119.499 199.7 120.899 198.5 122.499 197.8C126.299 196.1 130.599 196 134.599 197L132.799 199.6L130.399 195.9C127.799 191.9 125.099 187.6 122.599 183.6C128.799 178.9 134.999 174.3 141.499 170L141.399 169.9Z" fill="#111216"/>
<path d="M204.102 169.3C210.402 173.9 216.502 178.7 222.502 183.6C219.902 187.5 217.002 191.8 214.202 195.7L211.602 199.4L209.902 196.8C213.902 196 218.202 196.2 221.902 198.1C223.502 198.8 224.802 200.1 226.102 201.3C224.902 204.8 223.702 208.3 222.502 211.8C219.102 221.3 215.602 230.7 211.602 240C214.702 226.9 218.502 214.1 222.502 201.3L222.902 203C222.502 202.7 222.102 202.2 221.702 202C218.802 199.9 214.902 199.6 211.402 200C210.902 200 206.902 200.9 206.302 201C210.602 195.2 215.202 189 219.702 183.3L219.902 185C214.502 180 209.202 174.8 204.102 169.5V169.3Z" fill="#111216"/>
<path d="M216.002 272.1C215.902 272.1 215.702 272.1 215.602 272.2C215.602 271.2 215.402 270.3 215.302 269.3C214.902 265.1 214.502 260.9 214.102 256.7C214.102 257.1 214.202 257.5 214.302 257.9C214.802 261.6 215.302 265.4 215.702 269.2C215.802 270.1 215.902 271.1 216.002 272V272.1Z" fill="white"/>
</g>
<defs>
<clipPath id="clip0_1916_200291">
<rect width="346.3" height="418.9" fill="white"/>
</clipPath>
</defs>
</svg>
