<svg width="233" height="228" viewBox="0 0 233 228" fill="none" xmlns="http://www.w3.org/2000/svg">
<path d="M231.733 109.907C219.597 113.968 194.454 128.544 222.727 176.296C223.507 177.614 222.073 179.127 220.721 178.41C206.586 170.916 166.358 154.586 136.999 191.928C132.52 197.618 128.298 204.555 124.46 212.954C123.882 214.214 122.06 214.108 121.644 212.789C116.23 195.708 90.6951 131.418 24.646 178.908C23.2793 179.893 21.5636 178.244 22.5035 176.849C33.1529 161.029 44.903 130.143 1.18716 103.499C0.126423 102.854 0.260566 101.274 1.41487 100.81C5.93325 98.9919 14.8841 95.0221 23.2941 88.5994C39.4595 76.2792 53.598 54.9428 30.3034 22.6134C29.6675 21.7254 30.8815 20.7057 31.6405 21.4648C70.0862 59.8842 108.56 66.6811 125.701 14.1943C126.186 12.7154 128.313 12.8309 128.623 14.3581C138.875 65.2776 183.681 55.5715 227.231 25.8175C228.622 24.8666 230.293 26.5689 229.319 27.9395C216.029 46.6637 187.998 93.8067 231.708 107.028C233.114 107.455 233.129 109.443 231.732 109.907H231.733Z" fill="#F29500"/>
<path d="M231.734 109.908C219.598 113.97 194.455 128.545 222.729 176.297C223.508 177.616 222.075 179.128 220.722 178.412C206.587 170.918 166.359 154.588 137 191.93C130.39 172.449 104.386 114.179 40.6428 160.007C39.2756 160.991 37.5604 159.343 38.4999 157.948C48.6203 142.913 59.7337 114.276 23.2949 88.6014C39.4604 76.2812 53.5989 54.9448 30.3043 22.6153C29.6684 21.7274 30.8824 20.7077 31.6414 21.4667C69.9381 59.7372 108.44 67.0525 125.702 14.1963C126.187 12.7173 128.314 12.8329 128.624 14.36C138.876 65.2791 183.682 55.573 227.232 25.819C228.623 24.8681 230.294 26.5704 229.321 27.9409C216.031 46.6651 187.999 93.8081 231.71 107.029C233.115 107.456 233.13 109.444 231.733 109.908H231.734Z" fill="#FFB327"/>
<path d="M103.002 201.898L92.7433 200.406C92.3806 200.353 92.0361 200.213 91.7395 199.998C91.4429 199.782 91.2032 199.498 91.041 199.169L86.4534 189.873C85.6237 188.193 83.2278 188.193 82.3976 189.873L77.8105 199.169C77.6485 199.498 77.4089 199.783 77.1123 199.998C76.8157 200.214 76.471 200.354 76.1082 200.406L65.8498 201.898C63.9966 202.166 63.2562 204.444 64.5967 205.752L72.0204 212.989C72.283 213.245 72.4794 213.56 72.5925 213.909C72.7057 214.258 72.7321 214.629 72.6696 214.99L70.9186 225.207C70.6016 227.053 72.5388 228.461 74.1982 227.59L83.3734 222.766C83.6979 222.596 84.0587 222.507 84.425 222.507C84.7913 222.507 85.1522 222.596 85.4767 222.766L94.6529 227.59C96.3108 228.461 98.2504 227.053 97.9329 225.207L96.1805 214.99C96.1187 214.628 96.1456 214.258 96.259 213.909C96.3723 213.561 96.5687 213.245 96.8311 212.989L104.253 205.752C105.595 204.444 104.855 202.166 103.002 201.898ZM30.183 47.1842L22.2613 46.0318C21.9814 45.9913 21.7155 45.8832 21.4868 45.7169C21.258 45.5505 21.0733 45.3309 20.9486 45.077L17.4055 37.8992C16.7639 36.6017 14.914 36.6017 14.2743 37.8992L10.7312 45.077C10.6064 45.3311 10.4214 45.5508 10.1924 45.7172C9.96335 45.8835 9.69721 45.9915 9.41701 46.0318L1.4954 47.1842C0.0651732 47.3909 -0.507203 49.151 0.529185 50.1601L6.26154 55.7488C6.46402 55.9462 6.61548 56.1899 6.70288 56.4588C6.79028 56.7278 6.811 57.0139 6.76326 57.2926L5.40942 65.1827C5.165 66.6072 6.66063 67.6947 7.94191 67.0211L15.0276 63.2976C15.2779 63.1652 15.5568 63.0961 15.8399 63.0961C16.123 63.0961 16.4019 63.1652 16.6522 63.2976L23.7364 67.0211C25.0172 67.6942 26.5148 66.6072 26.2685 65.1827L24.9165 57.2926C24.8686 57.0139 24.8892 56.7277 24.9766 56.4587C25.064 56.1897 25.2156 55.9461 25.4182 55.7488L31.1506 50.1601C32.1875 49.1514 31.6151 47.3913 30.183 47.1842ZM173.982 13.234C175.017 12.2253 174.446 10.4652 173.014 10.2561L165.092 9.10563C164.812 9.06487 164.546 8.95668 164.317 8.79037C164.088 8.62406 163.903 8.4046 163.778 8.15087L160.236 0.973493C159.595 -0.324498 157.745 -0.324498 157.106 0.973493L153.563 8.15087C153.437 8.4046 153.252 8.62406 153.023 8.79037C152.794 8.95668 152.528 9.06487 152.248 9.10563L144.326 10.2561C142.894 10.4652 142.324 12.2253 143.359 13.234L149.091 18.8212C149.294 19.0187 149.446 19.2626 149.533 19.5319C149.621 19.8012 149.642 20.0878 149.594 20.367L148.24 28.2566C147.997 29.6816 149.492 30.7686 150.773 30.0955L157.857 26.3714C158.108 26.2392 158.387 26.1701 158.67 26.1701C158.954 26.1701 159.233 26.2392 159.483 26.3714L166.567 30.095C167.848 30.7681 169.344 29.6816 169.1 28.2571L167.746 20.367C167.698 20.0878 167.719 19.8013 167.807 19.532C167.895 19.2627 168.046 19.0188 168.249 18.8212L173.982 13.234Z" fill="#FFA90B"/>
<path fill-rule="evenodd" clip-rule="evenodd" d="M149.814 124.044C149.814 117.047 161.689 110.998 176.339 110.998C190.988 110.998 202.863 117.047 202.863 124.044V134.915C202.863 141.912 190.988 147.961 176.339 147.961C161.689 147.961 149.814 141.912 149.814 134.915V124.044Z" fill="#FE9923"/>
<path fill-rule="evenodd" clip-rule="evenodd" d="M176.339 110.998C190.988 110.998 202.863 116.836 202.863 124.044C202.863 131.246 190.988 137.09 176.339 137.09C161.689 137.09 149.814 131.246 149.814 124.044C149.814 116.836 161.689 110.998 176.339 110.998Z" fill="#FECD3D"/>
<path fill-rule="evenodd" clip-rule="evenodd" d="M176.341 110.998C180.905 110.998 185.829 112.227 189.603 113.172C189.603 120.294 178.069 126.218 163.079 126.218C158.539 126.218 153.578 124.979 149.817 124.044C149.777 123.757 149.817 124.336 149.817 124.044C149.816 116.923 161.346 110.998 176.341 110.998Z" fill="#CEA732"/>
<path fill-rule="evenodd" clip-rule="evenodd" d="M176.338 117.52C188.242 117.52 197.889 120.44 197.889 124.042C197.889 127.645 188.242 130.565 176.338 130.565C164.438 130.565 154.787 127.644 154.787 124.042C154.787 120.44 164.438 117.52 176.338 117.52Z" fill="#FEA832"/>
<path fill-rule="evenodd" clip-rule="evenodd" d="M176.338 117.524C180.174 117.524 183.188 116.965 186.285 117.524C182.484 122.098 172.644 126.221 161.418 126.221C159.359 126.221 158.367 126.429 156.445 126.221C155.858 125.622 154.787 124.701 154.787 124.046C154.787 120.462 164.76 117.524 176.338 117.524Z" fill="#CE8829"/>
<path d="M196.231 137.09V143.613C197.044 143.165 197.198 141.943 197.889 141.438V137.09H196.231ZM189.6 145.787C188.851 146.013 188.698 145.605 187.942 145.787V141.438H189.6V145.787ZM181.311 147.961C180.569 148.041 180.415 147.916 179.654 147.961V141.438H181.311V147.961ZM173.022 147.961C172.257 147.916 172.107 148.041 171.365 147.961V141.438H173.022V147.961ZM164.734 145.787C163.978 145.605 163.825 146.013 163.076 145.787V141.438H164.734V145.787ZM156.445 143.613C155.632 143.165 155.478 141.943 154.787 141.438V137.09H156.445V143.613Z" fill="#C85929"/>
<path fill-rule="evenodd" clip-rule="evenodd" d="M134.893 100.126C134.893 93.1301 146.767 87.0801 161.417 87.0801C176.062 87.0801 187.941 93.1301 187.941 100.126V110.997C187.941 117.988 176.063 124.043 161.417 124.043C146.767 124.043 134.893 117.988 134.893 110.997V100.126Z" fill="#FE9923"/>
<path fill-rule="evenodd" clip-rule="evenodd" d="M161.417 87.0801C176.062 87.0801 187.941 92.9196 187.941 100.126C187.941 107.327 176.063 113.172 161.417 113.172C146.767 113.172 134.893 107.327 134.893 100.126C134.893 92.9196 146.767 87.0801 161.417 87.0801Z" fill="#FECD3D"/>
<path fill-rule="evenodd" clip-rule="evenodd" d="M161.419 87.0801C175.921 87.0801 187.943 93.1858 187.943 100.126C187.943 100.806 188.165 101.646 187.943 102.3C185.17 102.724 181.066 102.3 177.996 102.3C161.984 102.3 149.814 96.9115 149.814 89.2544C153.376 88.3907 157.147 87.0801 161.419 87.0801Z" fill="#CEA732"/>
<path fill-rule="evenodd" clip-rule="evenodd" d="M161.418 91.4297C173.318 91.4297 182.969 94.3506 182.969 97.9526C182.969 101.555 173.318 104.476 161.418 104.476C149.514 104.476 139.867 101.555 139.867 97.9526C139.867 94.3506 149.514 91.4297 161.418 91.4297Z" fill="#FEA832"/>
<path fill-rule="evenodd" clip-rule="evenodd" d="M161.417 91.4298C173.3 91.4298 182.968 94.5148 182.968 97.9527C182.968 98.8146 182.415 99.382 181.31 100.127C180.595 100.151 180.38 100.127 179.653 100.127C167.188 100.127 155.946 96.1194 151.471 91.4298C154.455 90.9769 157.814 91.4298 161.417 91.4298Z" fill="#CE8829"/>
<path d="M181.311 113.172V119.695C182.124 119.247 182.278 118.019 182.969 117.52V113.172H181.311ZM174.68 121.869C173.931 122.095 173.778 121.687 173.022 121.869V117.52H174.68V121.869ZM166.391 124.043C165.649 124.123 165.499 123.998 164.734 124.043V117.52H166.391V124.043ZM158.103 124.043C157.341 123.998 157.191 124.123 156.445 124.043V117.52H158.103V124.043ZM149.814 121.869C149.059 121.687 148.906 122.095 148.156 121.869V117.52H149.814V121.869ZM141.525 119.695C140.708 119.247 140.562 118.019 139.867 117.52V113.172H141.525V119.695Z" fill="#C85929"/>
<path fill-rule="evenodd" clip-rule="evenodd" d="M149.814 74.0341C149.814 67.0436 161.689 60.9883 176.339 60.9883C190.988 60.9883 202.863 67.0434 202.863 74.0341V84.9057C202.863 91.8962 190.988 97.9515 176.339 97.9515C161.689 97.9515 149.814 91.8964 149.814 84.9057V74.0341Z" fill="#FE9923"/>
<path fill-rule="evenodd" clip-rule="evenodd" d="M176.339 60.9883C190.988 60.9883 202.863 66.8331 202.863 74.0341C202.863 81.2404 190.988 87.08 176.339 87.08C161.689 87.08 149.814 81.2404 149.814 74.0341C149.814 66.8333 161.689 60.9883 176.339 60.9883Z" fill="#FECD3D"/>
<path fill-rule="evenodd" clip-rule="evenodd" d="M176.338 67.5117C188.242 67.5117 197.889 70.4327 197.889 74.0346C197.889 77.6419 188.242 80.5576 176.338 80.5576C164.438 80.5576 154.787 77.6417 154.787 74.0346C154.787 70.4327 164.438 67.5117 176.338 67.5117Z" fill="#FEA832"/>
<path d="M196.231 87.0801V93.603C197.044 93.1554 197.198 91.9273 197.889 91.4287V87.0801H196.231ZM189.6 95.7773C188.851 96.0041 188.698 95.6001 187.942 95.7773V91.4287H189.6V95.7773ZM181.311 97.9516C180.569 98.0252 180.415 97.9062 179.654 97.9516V91.4287H181.311V97.9516ZM173.022 97.9516C172.268 97.9062 172.118 98.0271 171.365 97.9516V91.4287H173.022V97.9516ZM164.734 95.7773C163.978 95.6 163.825 96.004 163.076 95.7773V91.4287H164.734V95.7773ZM156.445 93.603C155.632 93.1554 155.478 91.9273 154.787 91.4287V87.0801H156.445V93.603Z" fill="#C85929"/>
<path d="M47.98 117.803C47.1733 117.803 46.495 117.547 45.945 117.033C45.4317 116.483 45.175 115.805 45.175 114.998V107.628H37.805C36.9983 107.628 36.32 107.353 35.77 106.803C35.2567 106.253 35 105.575 35 104.768C35 103.962 35.2567 103.302 35.77 102.788C36.32 102.238 36.9983 101.963 37.805 101.963H45.175V94.5933C45.175 93.8233 45.45 93.1633 46 92.6133C46.5867 92.0633 47.2467 91.7883 47.98 91.7883C48.8233 91.7883 49.5017 92.0633 50.015 92.6133C50.5283 93.1266 50.785 93.7866 50.785 94.5933V101.963H58.155C58.925 101.963 59.585 102.238 60.135 102.788C60.7217 103.338 61.015 104.017 61.015 104.823C61.015 105.593 60.7217 106.253 60.135 106.803C59.585 107.353 58.925 107.628 58.155 107.628H50.785V114.998C50.785 115.805 50.5283 116.483 50.015 117.033C49.5017 117.547 48.8233 117.803 47.98 117.803Z" fill="white"/>
<path d="M69.3681 125.943C68.5615 125.943 67.8831 125.668 67.3331 125.118C66.8198 124.568 66.5631 123.908 66.5631 123.138C66.5631 122.332 66.8198 121.672 67.3331 121.158L82.9531 102.898C84.0531 101.615 84.8965 100.405 85.4831 99.2683C86.1065 98.1316 86.4181 97.0499 86.4181 96.0233C86.4181 94.4099 86.1431 93.0166 85.5931 91.8433C85.0431 90.6699 84.2548 89.7716 83.2281 89.1483C82.2015 88.4883 80.9731 88.1583 79.5431 88.1583C78.1498 88.1583 76.8848 88.5249 75.7481 89.2583C74.6481 89.9549 73.7681 90.9083 73.1081 92.1183C72.4848 93.2916 72.1731 94.5933 72.1731 96.0233C72.1731 96.7566 71.8981 97.3983 71.3481 97.9483C70.8348 98.4983 70.1748 98.7733 69.3681 98.7733C68.5981 98.7733 67.9381 98.4983 67.3881 97.9483C66.8381 97.3983 66.5631 96.7566 66.5631 96.0233C66.5631 93.5299 67.1315 91.3116 68.2681 89.3683C69.4048 87.3883 70.9448 85.8299 72.8881 84.6933C74.8681 83.5566 77.0865 82.9883 79.5431 82.9883C82.0365 82.9883 84.1998 83.5199 86.0331 84.5833C87.8665 85.6466 89.2781 87.1499 90.2681 89.0933C91.2948 91.0366 91.8081 93.3466 91.8081 96.0233C91.8081 97.1966 91.5515 98.3883 91.0381 99.5983C90.5615 100.808 89.9381 101.963 89.1681 103.063C88.4348 104.163 87.6831 105.153 86.9131 106.033L74.3181 120.333H89.7181C90.5248 120.333 91.2031 120.627 91.7531 121.213C92.3031 121.763 92.5781 122.405 92.5781 123.138C92.5781 123.908 92.3031 124.568 91.7531 125.118C91.2031 125.668 90.5248 125.943 89.7181 125.943H69.3681Z" fill="white"/>
<path d="M112.867 125.943C110.227 125.943 107.844 125.338 105.717 124.128C103.627 122.882 101.959 121.195 100.712 119.068C99.5021 116.942 98.8971 114.558 98.8971 111.918C98.8971 111.112 99.1538 110.452 99.6671 109.938C100.18 109.388 100.84 109.113 101.647 109.113C102.454 109.113 103.132 109.388 103.682 109.938C104.232 110.452 104.507 111.112 104.507 111.918C104.507 113.495 104.874 114.925 105.607 116.208C106.34 117.492 107.33 118.5 108.577 119.233C109.86 119.967 111.29 120.333 112.867 120.333C114.48 120.333 115.91 119.967 117.157 119.233C118.44 118.5 119.449 117.492 120.182 116.208C120.915 114.925 121.282 113.495 121.282 111.918C121.282 110.305 120.915 108.875 120.182 107.628C119.449 106.345 118.44 105.337 117.157 104.603C115.91 103.87 114.48 103.503 112.867 103.503H103.682C102.875 103.503 102.215 103.247 101.702 102.733C101.189 102.183 100.932 101.505 100.932 100.698V85.8483C100.932 85.0416 101.189 84.3633 101.702 83.8133C102.215 83.2633 102.875 82.9883 103.682 82.9883H122.052C122.822 82.9883 123.482 83.2816 124.032 83.8683C124.582 84.4183 124.857 85.0783 124.857 85.8483C124.857 86.5816 124.582 87.2233 124.032 87.7733C123.519 88.3233 122.859 88.5983 122.052 88.5983H106.487V97.8933H112.867C115.544 97.8933 117.927 98.5166 120.017 99.7633C122.144 100.973 123.812 102.642 125.022 104.768C126.269 106.858 126.892 109.242 126.892 111.918C126.892 114.558 126.269 116.942 125.022 119.068C123.812 121.195 122.144 122.882 120.017 124.128C117.927 125.338 115.544 125.943 112.867 125.943Z" fill="white"/>
</svg>
